<?xml version="1.0" encoding="UTF-8"?>
<!DOCTYPE svg PUBLIC "-//W3C//DTD SVG 1.1//EN" "http://www.w3.org/Graphics/SVG/1.1/DTD/svg11.dtd">
<svg xmlns="http://www.w3.org/2000/svg" version="1.1" width="3255px" height="76px" style="shape-rendering:geometricPrecision; text-rendering:geometricPrecision; image-rendering:optimizeQuality; fill-rule:evenodd; clip-rule:evenodd" xmlns:xlink="http://www.w3.org/1999/xlink">
<g><path style="opacity:0.059" fill="#ededed" d="M 1376.5,-0.5 C 1377.5,-0.5 1378.5,-0.5 1379.5,-0.5C 1378.5,0.833333 1377.5,0.833333 1376.5,-0.5 Z"/></g>
<g><path style="opacity:0.91" fill="#27263a" d="M 1364.5,7.5 C 1363.29,7.93205 1362.29,8.59872 1361.5,9.5C 1360.83,9.5 1360.5,9.83333 1360.5,10.5C 1359.42,12.9962 1358.09,15.3295 1356.5,17.5C 1355.66,17.1583 1355.33,16.4916 1355.5,15.5C 1357.11,12.8419 1358.45,10.0085 1359.5,7C 1361.39,6.22039 1363.05,6.38705 1364.5,7.5 Z"/></g>
<g><path style="opacity:0.957" fill="#2a184d" d="M 1364.5,7.5 C 1371.74,9.3194 1379.08,10.8194 1386.5,12C 1410.5,12.5 1434.5,12.6666 1458.5,12.5C 1458.5,12.8333 1458.5,13.1667 1458.5,13.5C 1435.83,13.5 1413.17,13.5 1390.5,13.5C 1383.81,13.0516 1377.14,12.3849 1370.5,11.5C 1367.78,10.087 1364.78,9.42032 1361.5,9.5C 1362.29,8.59872 1363.29,7.93205 1364.5,7.5 Z"/></g>
<g><path style="opacity:1" fill="#1b0b3a" d="M 1458.5,13.5 C 1458.5,13.1667 1458.5,12.8333 1458.5,12.5C 1591.83,12.5 1725.17,12.5 1858.5,12.5C 1858.5,12.8333 1858.5,13.1667 1858.5,13.5C 1857.5,13.5 1856.5,13.5 1855.5,13.5C 1831.14,13.2057 1806.81,13.539 1782.5,14.5C 1675.83,14.5 1569.17,14.5 1462.5,14.5C 1461.43,13.5655 1460.1,13.2322 1458.5,13.5 Z"/></g>
<g><path style="opacity:1" fill="#431a7e" d="M 1870.5,12.5 C 1868.07,13.7409 1868.07,14.9076 1870.5,16C 1866.55,17.1538 1862.55,17.9871 1858.5,18.5C 1841.52,17.7238 1824.52,17.2238 1807.5,17C 1804.45,16.8214 1801.45,16.3214 1798.5,15.5C 1817.66,14.8333 1836.66,14.1667 1855.5,13.5C 1856.5,13.5 1857.5,13.5 1858.5,13.5C 1862.52,13.3542 1866.52,13.0209 1870.5,12.5 Z"/></g>
<g><path style="opacity:1" fill="#411b80" d="M 1370.5,11.5 C 1377.14,12.3849 1383.81,13.0516 1390.5,13.5C 1413.66,14.3321 1437,14.8321 1460.5,15C 1459.83,15.3333 1459.17,15.6667 1458.5,16C 1431.85,17.1967 1405.18,17.6967 1378.5,17.5C 1374.73,14.8393 1370.39,13.8393 1365.5,14.5C 1365.5,13.5 1365.5,12.5 1365.5,11.5C 1367.17,11.5 1368.83,11.5 1370.5,11.5 Z"/></g>
<g><path style="opacity:1" fill="#39186b" d="M 1390.5,13.5 C 1413.17,13.5 1435.83,13.5 1458.5,13.5C 1460.1,13.2322 1461.43,13.5655 1462.5,14.5C 1462.5,15.5 1462.5,16.5 1462.5,17.5C 1462.03,18.6935 1461.03,19.3601 1459.5,19.5C 1452.2,17.6908 1445.2,18.3575 1438.5,21.5C 1428.81,21.6932 1419.14,21.3599 1409.5,20.5C 1400.34,19.6701 1391.01,19.1701 1381.5,19C 1379.83,18.6667 1378.17,18.3333 1376.5,18C 1377.09,17.5357 1377.76,17.369 1378.5,17.5C 1405.18,17.6967 1431.85,17.1967 1458.5,16C 1459.17,15.6667 1459.83,15.3333 1460.5,15C 1437,14.8321 1413.66,14.3321 1390.5,13.5 Z"/></g>
<g><path style="opacity:1" fill="#2e145e" d="M 1462.5,14.5 C 1569.17,14.5 1675.83,14.5 1782.5,14.5C 1781.91,15.1515 1781.24,15.8182 1780.5,16.5C 1780.71,17.086 1781.04,17.586 1781.5,18C 1788.35,18.1717 1795.01,18.6717 1801.5,19.5C 1790.6,19.6899 1779.6,19.6899 1768.5,19.5C 1765.44,21.1407 1762.11,21.9741 1758.5,22C 1750.51,22.4997 1742.51,22.6664 1734.5,22.5C 1734.5,21.5 1734.5,20.5 1734.5,19.5C 1729.39,19.8544 1724.39,19.8544 1719.5,19.5C 1691.18,19.7218 1662.68,20.3885 1634,21.5C 1613.84,20.9319 1594.51,20.9319 1576,21.5C 1575.2,20.1955 1574.03,19.5288 1572.5,19.5C 1569.01,20.6433 1565.84,20.6433 1563,19.5C 1562.25,20.1258 1561.42,20.6258 1560.5,21C 1538.5,21.5 1516.5,21.6666 1494.5,21.5C 1489.48,21.2478 1484.48,20.7478 1479.5,20C 1478.83,19.3333 1478.17,18.6667 1477.5,18C 1472.51,17.5007 1467.51,17.3341 1462.5,17.5C 1462.5,16.5 1462.5,15.5 1462.5,14.5 Z"/></g>
<g><path style="opacity:1" fill="#371b69" d="M 1855.5,13.5 C 1836.66,14.1667 1817.66,14.8333 1798.5,15.5C 1801.45,16.3214 1804.45,16.8214 1807.5,17C 1824.52,17.2238 1841.52,17.7238 1858.5,18.5C 1859.5,19.1667 1860.5,19.8333 1861.5,20.5C 1849.83,20.7281 1838.17,21.0614 1826.5,21.5C 1818.08,21.6441 1809.75,20.9775 1801.5,19.5C 1795.01,18.6717 1788.35,18.1717 1781.5,18C 1781.04,17.586 1780.71,17.086 1780.5,16.5C 1781.24,15.8182 1781.91,15.1515 1782.5,14.5C 1806.81,13.539 1831.14,13.2057 1855.5,13.5 Z"/></g>
<g><path style="opacity:1" fill="#3a2767" d="M 1409.5,20.5 C 1419.14,21.3599 1428.81,21.6932 1438.5,21.5C 1425.34,22.331 1412.01,22.831 1398.5,23C 1397.26,23.2321 1396.26,23.7321 1395.5,24.5C 1391.17,24.5 1386.83,24.5 1382.5,24.5C 1382.5,23.1667 1382.5,21.8333 1382.5,20.5C 1391.5,20.5 1400.5,20.5 1409.5,20.5 Z"/></g>
<g><path style="opacity:1" fill="#44318d" d="M 1883.5,9.5 C 1883.5,9.83333 1883.5,10.1667 1883.5,10.5C 1882.7,12.0418 1882.37,13.7085 1882.5,15.5C 1881.66,15.8417 1881.33,16.5084 1881.5,17.5C 1880.16,18.3149 1879.16,19.4815 1878.5,21C 1877.55,21.4828 1876.55,21.6495 1875.5,21.5C 1875.5,22.5 1875.5,23.5 1875.5,24.5C 1873.5,24.5 1871.5,24.5 1869.5,24.5C 1867.07,22.9494 1864.41,21.616 1861.5,20.5C 1860.5,19.8333 1859.5,19.1667 1858.5,18.5C 1862.55,17.9871 1866.55,17.1538 1870.5,16C 1868.07,14.9076 1868.07,13.7409 1870.5,12.5C 1874.63,11.1368 1878.97,10.1368 1883.5,9.5 Z"/></g>
<g><path style="opacity:1" fill="#645eae" d="M 1881.5,17.5 C 1881.23,24.759 1877.57,27.4257 1870.5,25.5C 1869.21,25.7373 1868.21,25.404 1867.5,24.5C 1868.17,24.5 1868.83,24.5 1869.5,24.5C 1871.5,24.5 1873.5,24.5 1875.5,24.5C 1875.5,23.5 1875.5,22.5 1875.5,21.5C 1876.55,21.6495 1877.55,21.4828 1878.5,21C 1879.16,19.4815 1880.16,18.3149 1881.5,17.5 Z"/></g>
<g><path style="opacity:1" fill="#6864c6" d="M 1354.5,40.5 C 1353.73,41.6935 1352.73,42.6935 1351.5,43.5C 1352.39,40.757 1353.55,38.0904 1355,35.5C 1355.36,32.4748 1355.86,29.4748 1356.5,26.5C 1356.17,25.8333 1355.83,25.1667 1355.5,24.5C 1351.72,28.3984 1347.72,32.065 1343.5,35.5C 1348.22,30.1126 1352.56,24.4459 1356.5,18.5C 1358.23,17.0243 1359.56,17.3576 1360.5,19.5C 1358.58,25.3368 1357.42,31.3368 1357,37.5C 1355.96,38.3734 1355.12,39.3734 1354.5,40.5 Z"/></g>
<g><path style="opacity:0.973" fill="#2e2456" d="M 1922.5,46.5 C 1918.95,44.6461 1915.28,42.9795 1911.5,41.5C 1908.46,38.4534 1905.12,35.7867 1901.5,33.5C 1899.54,31.0365 1897.37,28.7032 1895,26.5C 1893.29,22.4905 1891.12,18.8238 1888.5,15.5C 1887.37,13.6854 1886.7,11.6854 1886.5,9.5C 1885.5,9.5 1884.5,9.5 1883.5,9.5C 1878.97,10.1368 1874.63,11.1368 1870.5,12.5C 1866.52,13.0209 1862.52,13.3542 1858.5,13.5C 1858.5,13.1667 1858.5,12.8333 1858.5,12.5C 1860.74,12.7947 1862.74,12.4614 1864.5,11.5C 1868.88,10.5234 1873.22,9.35673 1877.5,8C 1880.83,7.33333 1884.17,7.33333 1887.5,8C 1890.98,12.4548 1893.81,17.2881 1896,22.5C 1898.67,25.8333 1901.33,29.1667 1904,32.5C 1910.04,37.3829 1916.21,42.0496 1922.5,46.5 Z"/></g>
<g><path style="opacity:0.851" fill="#c8dfed" d="M 1365.5,19.5 C 1366.34,19.8417 1366.67,20.5084 1366.5,21.5C 1367.04,23.1172 1367.37,24.7839 1367.5,26.5C 1366.49,27.8717 1365.49,29.205 1364.5,30.5C 1362.42,26.7645 1362.09,22.7645 1363.5,18.5C 1364.18,18.8627 1364.85,19.1961 1365.5,19.5 Z"/></g>
<g><path style="opacity:1" fill="#433384" d="M 1360.5,10.5 C 1360.5,9.83333 1360.83,9.5 1361.5,9.5C 1364.78,9.42032 1367.78,10.087 1370.5,11.5C 1368.83,11.5 1367.17,11.5 1365.5,11.5C 1365.5,12.5 1365.5,13.5 1365.5,14.5C 1370.39,13.8393 1374.73,14.8393 1378.5,17.5C 1377.76,17.369 1377.09,17.5357 1376.5,18C 1378.17,18.3333 1379.83,18.6667 1381.5,19C 1391.01,19.1701 1400.34,19.6701 1409.5,20.5C 1400.5,20.5 1391.5,20.5 1382.5,20.5C 1382.5,21.8333 1382.5,23.1667 1382.5,24.5C 1376.64,25.2427 1371.3,24.2427 1366.5,21.5C 1366.67,20.5084 1366.34,19.8417 1365.5,19.5C 1365.38,16.4221 1364.38,13.7554 1362.5,11.5C 1362.16,10.6618 1361.49,10.3284 1360.5,10.5 Z"/></g>
<g><path style="opacity:1" fill="#2b1b53" d="M 1462.5,17.5 C 1467.51,17.3341 1472.51,17.5007 1477.5,18C 1478.17,18.6667 1478.83,19.3333 1479.5,20C 1484.48,20.7478 1489.48,21.2478 1494.5,21.5C 1561.59,22.4682 1628.75,22.8016 1696,22.5C 1703.96,21.7581 1711.79,20.7581 1719.5,19.5C 1724.39,19.8544 1729.39,19.8544 1734.5,19.5C 1734.5,20.5 1734.5,21.5 1734.5,22.5C 1742.51,22.6664 1750.51,22.4997 1758.5,22C 1762.11,21.9741 1765.44,21.1407 1768.5,19.5C 1779.6,19.6899 1790.6,19.6899 1801.5,19.5C 1809.75,20.9775 1818.08,21.6441 1826.5,21.5C 1838.17,21.0614 1849.83,20.7281 1861.5,20.5C 1864.41,21.616 1867.07,22.9494 1869.5,24.5C 1868.83,24.5 1868.17,24.5 1867.5,24.5C 1836.5,24.5 1805.5,24.5 1774.5,24.5C 1648.17,24.5 1521.83,24.5 1395.5,24.5C 1396.26,23.7321 1397.26,23.2321 1398.5,23C 1412.01,22.831 1425.34,22.331 1438.5,21.5C 1445.2,18.3575 1452.2,17.6908 1459.5,19.5C 1461.03,19.3601 1462.03,18.6935 1462.5,17.5 Z"/></g>
<g><path style="opacity:1" fill="#2c1b5d" d="M 1719.5,19.5 C 1711.79,20.7581 1703.96,21.7581 1696,22.5C 1628.75,22.8016 1561.59,22.4682 1494.5,21.5C 1516.5,21.6666 1538.5,21.5 1560.5,21C 1561.42,20.6258 1562.25,20.1258 1563,19.5C 1565.84,20.6433 1569.01,20.6433 1572.5,19.5C 1574.03,19.5288 1575.2,20.1955 1576,21.5C 1594.51,20.9319 1613.84,20.9319 1634,21.5C 1662.68,20.3885 1691.18,19.7218 1719.5,19.5 Z"/></g>
<g><path style="opacity:1" fill="#ccd9ee" d="M 1882.5,31.5 C 1881.5,29.8333 1880.17,28.5 1878.5,27.5C 1875.83,26.8333 1873.17,26.1667 1870.5,25.5C 1877.57,27.4257 1881.23,24.759 1881.5,17.5C 1881.33,16.5084 1881.66,15.8417 1882.5,15.5C 1883.22,15.0825 1883.72,14.4158 1884,13.5C 1884.15,19.6735 1883.65,25.6735 1882.5,31.5 Z"/></g>
<g><path style="opacity:1" fill="#837cb9" d="M 1366.5,21.5 C 1371.3,24.2427 1376.64,25.2427 1382.5,24.5C 1382.5,25.1667 1382.5,25.8333 1382.5,26.5C 1377.5,26.5 1372.5,26.5 1367.5,26.5C 1367.37,24.7839 1367.04,23.1172 1366.5,21.5 Z"/></g>
<g><path style="opacity:1" fill="#463761" d="M 1382.5,24.5 C 1386.83,24.5 1391.17,24.5 1395.5,24.5C 1521.83,24.5 1648.17,24.5 1774.5,24.5C 1769.5,25.1667 1764.5,25.8333 1759.5,26.5C 1643.33,26.1671 1527.33,26.5005 1411.5,27.5C 1410.5,27.5 1409.5,27.5 1408.5,27.5C 1399.86,26.7013 1391.19,26.368 1382.5,26.5C 1382.5,25.8333 1382.5,25.1667 1382.5,24.5 Z"/></g>
<g><path style="opacity:1" fill="#4b3f68" d="M 1774.5,24.5 C 1805.5,24.5 1836.5,24.5 1867.5,24.5C 1868.21,25.404 1869.21,25.7373 1870.5,25.5C 1873.17,26.1667 1875.83,26.8333 1878.5,27.5C 1867.84,26.7896 1857.17,26.6229 1846.5,27C 1846.17,27.3333 1845.83,27.6667 1845.5,28C 1846.69,29.0946 1848.03,29.928 1849.5,30.5C 1858.66,37.4962 1866.66,45.6628 1873.5,55C 1881.83,55.4997 1890.16,55.6664 1898.5,55.5C 1900.56,55.5172 1902.56,55.8505 1904.5,56.5C 1929.33,57.4977 1954.33,57.831 1979.5,57.5C 1988.68,57.1734 1997.68,57.5067 2006.5,58.5C 1973.17,58.5 1939.83,58.5 1906.5,58.5C 1717.17,58.5 1527.83,58.5 1338.5,58.5C 1338.5,58.1667 1338.5,57.8333 1338.5,57.5C 1529.5,57.8625 1677.84,57.5291 1783.5,56.5C 1783.5,56.1667 1783.5,55.8333 1783.5,55.5C 1812.51,55.8332 1841.51,55.4998 1870.5,54.5C 1870.14,53.4777 1869.48,52.811 1868.5,52.5C 1861.21,42.5096 1852.21,34.3429 1841.5,28C 1814.2,26.553 1786.87,26.053 1759.5,26.5C 1764.5,25.8333 1769.5,25.1667 1774.5,24.5 Z"/></g>
<g><path style="opacity:1" fill="#8390d3" d="M 1883.5,10.5 C 1883.5,10.1667 1883.5,9.83333 1883.5,9.5C 1884.5,9.5 1885.5,9.5 1886.5,9.5C 1886.7,11.6854 1887.37,13.6854 1888.5,15.5C 1887.45,22.1303 1887.29,28.797 1888,35.5C 1889.72,36.3841 1890.89,37.7175 1891.5,39.5C 1891.67,40.4916 1891.34,41.1583 1890.5,41.5C 1888.02,39.3477 1886.35,36.6811 1885.5,33.5C 1886.13,25.4271 1885.47,17.7605 1883.5,10.5 Z"/></g>
<g><path style="opacity:1" fill="#a1b5dc" d="M 1883.5,10.5 C 1885.47,17.7605 1886.13,25.4271 1885.5,33.5C 1885.17,33.5 1884.83,33.5 1884.5,33.5C 1883.5,33.1667 1882.83,32.5 1882.5,31.5C 1883.65,25.6735 1884.15,19.6735 1884,13.5C 1883.72,14.4158 1883.22,15.0825 1882.5,15.5C 1882.37,13.7085 1882.7,12.0418 1883.5,10.5 Z"/></g>
<g><path style="opacity:1" fill="#20162c" d="M 1408.5,28.5 C 1408.5,28.1667 1408.5,27.8333 1408.5,27.5C 1409.5,27.5 1410.5,27.5 1411.5,27.5C 1532.83,27.5 1654.17,27.5 1775.5,27.5C 1745.6,28.1741 1715.6,28.8408 1685.5,29.5C 1593.33,28.5006 1501,28.1673 1408.5,28.5 Z"/></g>
<g><path style="opacity:0.992" fill="#261e2c" d="M 1408.5,28.5 C 1501,28.1673 1593.33,28.5006 1685.5,29.5C 1591.81,29.1665 1500.81,29.4998 1412.5,30.5C 1407.88,31.6376 1403.55,33.6376 1399.5,36.5C 1395.5,41.0032 1391.16,45.1699 1386.5,49C 1390.15,49.4986 1393.82,49.6653 1397.5,49.5C 1394.75,50.2352 1391.42,50.9019 1387.5,51.5C 1385.22,51.9227 1383.55,51.256 1382.5,49.5C 1385,47.1451 1387,44.3118 1388.5,41C 1393.2,40.3082 1396.86,37.9749 1399.5,34C 1402.65,32.3382 1405.65,30.5048 1408.5,28.5 Z"/></g>
<g><path style="opacity:1" fill="#a5b6e1" d="M 1362.5,11.5 C 1364.38,13.7554 1365.38,16.4221 1365.5,19.5C 1364.85,19.1961 1364.18,18.8627 1363.5,18.5C 1362.09,22.7645 1362.42,26.7645 1364.5,30.5C 1363.83,31.5 1363.17,32.5 1362.5,33.5C 1361.17,26.1667 1361.17,18.8333 1362.5,11.5 Z"/></g>
<g><path style="opacity:0.043" fill="#ecebec" d="M 1873.5,30.5 C 1874.55,30.3505 1875.55,30.5172 1876.5,31C 1881.41,34.975 1885.24,39.8083 1888,45.5C 1888.67,46.2524 1889.5,46.5858 1890.5,46.5C 1890.56,47.609 1890.89,48.609 1891.5,49.5C 1887.69,50.6453 1883.69,50.8119 1879.5,50C 1877.67,49.7265 1876.17,48.8932 1875,47.5C 1874,44.8268 1872.5,42.4935 1870.5,40.5C 1866.75,37.9587 1863.41,34.9587 1860.5,31.5C 1864.78,30.5078 1869.12,30.1744 1873.5,30.5 Z M 1870.5,37.5 C 1869.07,37.1193 1868.24,36.1193 1868,34.5C 1867.67,34.8333 1867.33,35.1667 1867,35.5C 1866.33,34.5 1866.33,33.5 1867,32.5C 1869.64,32.5451 1872.47,32.7118 1875.5,33C 1880.3,37.5859 1884.63,42.5859 1888.5,48C 1884.74,48.7383 1881.07,48.4049 1877.5,47C 1875.59,42.7156 1873.26,39.549 1870.5,37.5 Z"/></g>
<g><path style="opacity:1" fill="#7170d6" d="M 1888.5,15.5 C 1891.12,18.8238 1893.29,22.4905 1895,26.5C 1897.37,28.7032 1899.54,31.0365 1901.5,33.5C 1898.77,32.287 1896.44,30.4536 1894.5,28C 1893.55,27.3828 1892.72,27.5494 1892,28.5C 1891.33,31.1667 1891.33,33.8333 1892,36.5C 1893.37,37.9101 1894.21,39.5767 1894.5,41.5C 1893.5,40.8333 1892.5,40.1667 1891.5,39.5C 1890.89,37.7175 1889.72,36.3841 1888,35.5C 1887.29,28.797 1887.45,22.1303 1888.5,15.5 Z"/></g>
<g><path style="opacity:1" fill="#413754" d="M 1367.5,26.5 C 1372.5,26.5 1377.5,26.5 1382.5,26.5C 1391.19,26.368 1399.86,26.7013 1408.5,27.5C 1408.5,27.8333 1408.5,28.1667 1408.5,28.5C 1405.65,30.5048 1402.65,32.3382 1399.5,34C 1396.86,37.9749 1393.2,40.3082 1388.5,41C 1387,44.3118 1385,47.1451 1382.5,49.5C 1379.63,49.3692 1377.97,50.7026 1377.5,53.5C 1377.17,53.5 1376.83,53.5 1376.5,53.5C 1375.83,53.5 1375.17,53.5 1374.5,53.5C 1374.5,53.1667 1374.5,52.8333 1374.5,52.5C 1377.73,49.0632 1380.73,45.3966 1383.5,41.5C 1388.82,37.511 1393.82,33.1777 1398.5,28.5C 1390.19,27.3349 1381.85,27.1683 1373.5,28C 1372.06,28.2189 1370.73,28.7189 1369.5,29.5C 1369.62,30.1067 1369.96,30.44 1370.5,30.5C 1365.47,36.5248 1360.47,42.5248 1355.5,48.5C 1354.83,48.5 1354.5,48.8333 1354.5,49.5C 1353.4,50.6005 1352.06,51.2671 1350.5,51.5C 1347.24,51.2991 1344.57,52.4657 1342.5,55C 1352.83,55.4998 1363.16,55.6665 1373.5,55.5C 1362.01,56.4949 1350.35,56.8283 1338.5,56.5C 1343.43,52.6868 1348.43,48.8535 1353.5,45C 1354.25,44.3292 1354.59,43.4959 1354.5,42.5C 1357.39,39.729 1360.06,36.729 1362.5,33.5C 1363.17,32.5 1363.83,31.5 1364.5,30.5C 1365.49,29.205 1366.49,27.8717 1367.5,26.5 Z M 1373.5,35.5 C 1375.01,36.3093 1376.68,36.4759 1378.5,36C 1376.65,37.6686 1374.65,37.8353 1372.5,36.5C 1372.62,35.8933 1372.96,35.56 1373.5,35.5 Z M 1370.5,39.5 C 1370.8,40.1499 1371.14,40.8165 1371.5,41.5C 1369.67,43.4983 1368.67,45.8316 1368.5,48.5C 1365.1,48.8204 1361.77,48.487 1358.5,47.5C 1360.52,45.3102 1362.36,42.9768 1364,40.5C 1364.33,40.8333 1364.67,41.1667 1365,41.5C 1366.6,39.4186 1368.43,38.7519 1370.5,39.5 Z"/></g>
<g><path style="opacity:0.026" fill="#f0f0f1" d="M 1370.5,30.5 C 1376.18,30.3339 1381.84,30.5006 1387.5,31C 1382.33,35.5 1377.17,40 1372,44.5C 1370.91,46.0779 1370.07,47.7446 1369.5,49.5C 1364.64,49.8195 1359.97,49.4861 1355.5,48.5C 1360.47,42.5248 1365.47,36.5248 1370.5,30.5 Z M 1373.5,35.5 C 1372.96,35.56 1372.62,35.8933 1372.5,36.5C 1374.65,37.8353 1376.65,37.6686 1378.5,36C 1376.68,36.4759 1375.01,36.3093 1373.5,35.5 Z M 1370.5,39.5 C 1368.43,38.7519 1366.6,39.4186 1365,41.5C 1364.67,41.1667 1364.33,40.8333 1364,40.5C 1362.36,42.9768 1360.52,45.3102 1358.5,47.5C 1361.77,48.487 1365.1,48.8204 1368.5,48.5C 1368.67,45.8316 1369.67,43.4983 1371.5,41.5C 1371.14,40.8165 1370.8,40.1499 1370.5,39.5 Z"/></g>
<g><path style="opacity:0.005" fill="#fefffe" d="M 1870.5,37.5 C 1869.7,36.5768 1869.53,35.5768 1870,34.5C 1871,35.8333 1872,35.8333 1873,34.5C 1873.48,35.448 1873.65,36.448 1873.5,37.5C 1872.5,37.5 1871.5,37.5 1870.5,37.5 Z"/></g>
<g><path style="opacity:0.996" fill="#2d2a40" d="M 1878.5,27.5 C 1880.17,28.5 1881.5,29.8333 1882.5,31.5C 1882.83,32.5 1883.5,33.1667 1884.5,33.5C 1884.34,34.8734 1884.51,36.2068 1885,37.5C 1887.36,40.2223 1889.19,43.2223 1890.5,46.5C 1889.5,46.5858 1888.67,46.2524 1888,45.5C 1885.24,39.8083 1881.41,34.975 1876.5,31C 1875.55,30.5172 1874.55,30.3505 1873.5,30.5C 1868.43,28.8224 1863.1,28.1557 1857.5,28.5C 1855.37,27.3709 1853.04,27.2042 1850.5,28C 1849.75,28.6708 1849.41,29.5041 1849.5,30.5C 1848.03,29.928 1846.69,29.0946 1845.5,28C 1845.83,27.6667 1846.17,27.3333 1846.5,27C 1857.17,26.6229 1867.84,26.7896 1878.5,27.5 Z"/></g>
<g><path style="opacity:1" fill="#1e1924" d="M 1775.5,27.5 C 1796.19,27.1287 1816.86,27.6287 1837.5,29C 1839.82,30.9235 1842.49,32.2569 1845.5,33C 1849.32,38.8256 1854.32,43.1589 1860.5,46C 1862.23,47.7889 1862.9,49.9556 1862.5,52.5C 1857.31,52.8205 1852.31,52.4872 1847.5,51.5C 1850.85,51.665 1854.18,51.4983 1857.5,51C 1854.64,50.8171 1851.97,50.3171 1849.5,49.5C 1852.17,49.5 1854.83,49.5 1857.5,49.5C 1857.65,48.448 1857.48,47.448 1857,46.5C 1852.86,43.0296 1848.69,39.5296 1844.5,36C 1841.37,33.8484 1838.03,32.1817 1834.5,31C 1693.83,30.5 1553.17,30.3333 1412.5,30.5C 1500.81,29.4998 1591.81,29.1665 1685.5,29.5C 1715.6,28.8408 1745.6,28.1741 1775.5,27.5 Z"/></g>
<g><path style="opacity:1" fill="#533bb6" d="M 1351.5,43.5 C 1349.52,44.4839 1347.85,45.8173 1346.5,47.5C 1342.66,49.1672 1338.66,49.6672 1334.5,49C 1332.7,47.3002 1332.37,45.4669 1333.5,43.5C 1336.54,40.4534 1339.88,37.7867 1343.5,35.5C 1347.72,32.065 1351.72,28.3984 1355.5,24.5C 1355.83,25.1667 1356.17,25.8333 1356.5,26.5C 1355.86,29.4748 1355.36,32.4748 1355,35.5C 1353.55,38.0904 1352.39,40.757 1351.5,43.5 Z"/></g>
<g><path style="opacity:0.987" fill="#19151a" d="M 1374.5,52.5 C 1366.89,53.7178 1359.22,54.2178 1351.5,54C 1350.75,53.3292 1350.41,52.4959 1350.5,51.5C 1352.06,51.2671 1353.4,50.6005 1354.5,49.5C 1359.5,50.8333 1364.5,50.8333 1369.5,49.5C 1370.07,47.7446 1370.91,46.0779 1372,44.5C 1377.17,40 1382.33,35.5 1387.5,31C 1381.84,30.5006 1376.18,30.3339 1370.5,30.5C 1369.96,30.44 1369.62,30.1067 1369.5,29.5C 1370.73,28.7189 1372.06,28.2189 1373.5,28C 1381.85,27.1683 1390.19,27.3349 1398.5,28.5C 1393.82,33.1777 1388.82,37.511 1383.5,41.5C 1380.73,45.3966 1377.73,49.0632 1374.5,52.5 Z"/></g>
<g><path style="opacity:0.997" fill="#1a1619" d="M 1857.5,28.5 C 1863.1,28.1557 1868.43,28.8224 1873.5,30.5C 1869.12,30.1744 1864.78,30.5078 1860.5,31.5C 1863.41,34.9587 1866.75,37.9587 1870.5,40.5C 1872.5,42.4935 1874,44.8268 1875,47.5C 1876.17,48.8932 1877.67,49.7265 1879.5,50C 1883.69,50.8119 1887.69,50.6453 1891.5,49.5C 1892.65,50.3132 1892.65,51.3132 1891.5,52.5C 1887.57,53.5416 1883.74,53.2082 1880,51.5C 1877.6,52.6023 1875.1,52.769 1872.5,52C 1871.01,47.5056 1868.34,43.8389 1864.5,41C 1864.83,40.6667 1865.17,40.3333 1865.5,40C 1860.82,36.6498 1856.49,32.9831 1852.5,29C 1854.13,28.5065 1855.8,28.3398 1857.5,28.5 Z"/></g>
<g><path style="opacity:1" fill="#583cbc" d="M 1901.5,33.5 C 1905.12,35.7867 1908.46,38.4534 1911.5,41.5C 1912.03,43.4456 1913.37,44.4456 1915.5,44.5C 1916.04,46.1172 1916.37,47.7839 1916.5,49.5C 1913.43,49.4533 1910.43,48.9533 1907.5,48C 1903.04,46.357 1898.71,44.5236 1894.5,42.5C 1894.5,42.1667 1894.5,41.8333 1894.5,41.5C 1894.21,39.5767 1893.37,37.9101 1892,36.5C 1891.33,33.8333 1891.33,31.1667 1892,28.5C 1892.72,27.5494 1893.55,27.3828 1894.5,28C 1896.44,30.4536 1898.77,32.287 1901.5,33.5 Z"/></g>
<g><path style="opacity:1" fill="#8289d2" d="M 1360.5,10.5 C 1361.49,10.3284 1362.16,10.6618 1362.5,11.5C 1361.17,18.8333 1361.17,26.1667 1362.5,33.5C 1360.06,36.729 1357.39,39.729 1354.5,42.5C 1354.5,41.8333 1354.5,41.1667 1354.5,40.5C 1355.12,39.3734 1355.96,38.3734 1357,37.5C 1357.42,31.3368 1358.58,25.3368 1360.5,19.5C 1359.56,17.3576 1358.23,17.0243 1356.5,18.5C 1356.5,18.1667 1356.5,17.8333 1356.5,17.5C 1358.09,15.3295 1359.42,12.9962 1360.5,10.5 Z"/></g>
<g><path style="opacity:0.018" fill="#f2f1f4" d="M 1412.5,30.5 C 1553.17,30.3333 1693.83,30.5 1834.5,31C 1838.03,32.1817 1841.37,33.8484 1844.5,36C 1848.69,39.5296 1852.86,43.0296 1857,46.5C 1857.48,47.448 1857.65,48.448 1857.5,49.5C 1854.83,49.5 1852.17,49.5 1849.5,49.5C 1849.5,48.8333 1849.17,48.5 1848.5,48.5C 1698,48.167 1547.67,48.5004 1397.5,49.5C 1393.82,49.6653 1390.15,49.4986 1386.5,49C 1391.16,45.1699 1395.5,41.0032 1399.5,36.5C 1403.55,33.6376 1407.88,31.6376 1412.5,30.5 Z M 1412.5,32.5 C 1552.72,32.5054 1692.88,32.5054 1833,32.5C 1838.71,34.628 1844.21,37.7947 1849.5,42C 1848.78,43.6524 1848.45,45.1524 1848.5,46.5C 1847.81,45.9747 1847.31,45.3081 1847,44.5C 1699.34,46.1678 1551.5,47.1678 1403.5,47.5C 1400.76,47.072 1398.42,45.9053 1396.5,44C 1397.67,42.1667 1398.83,40.3333 1400,38.5C 1403.02,39.3311 1404.52,37.9978 1404.5,34.5C 1405.82,34.33 1406.99,34.6634 1408,35.5C 1410.03,35.0853 1411.53,34.0853 1412.5,32.5 Z"/></g>
<g><path style="opacity:0.949" fill="#332c53" d="M 1355.5,15.5 C 1355.33,16.4916 1355.66,17.1583 1356.5,17.5C 1356.5,17.8333 1356.5,18.1667 1356.5,18.5C 1352.56,24.4459 1348.22,30.1126 1343.5,35.5C 1339.88,37.7867 1336.54,40.4534 1333.5,43.5C 1330.24,44.7738 1327.24,46.4405 1324.5,48.5C 1277.21,49.4902 1229.88,49.8235 1182.5,49.5C 1147.83,49.5 1113.17,49.5 1078.5,49.5C 812.5,49.5 546.5,49.5 280.5,49.5C 227.833,49.5 175.167,49.5 122.5,49.5C 81.5,49.5 40.5,49.5 -0.5,49.5C -0.5,49.1667 -0.5,48.8333 -0.5,48.5C 436.5,48.6667 873.5,48.5 1310.5,48C 1314.5,47.6667 1318.5,47.3333 1322.5,47C 1327.52,44.8252 1332.19,42.1585 1336.5,39C 1340.95,34.5541 1345.45,30.0541 1350,25.5C 1352.13,22.2333 1353.96,18.9 1355.5,15.5 Z"/></g>
<g><path style="opacity:0.016" fill="#f0eff4" d="M 1396.5,10.5 C 1552.33,11.4996 1708.33,11.833 1864.5,11.5C 1862.74,12.4614 1860.74,12.7947 1858.5,12.5C 1725.17,12.5 1591.83,12.5 1458.5,12.5C 1434.5,12.6666 1410.5,12.5 1386.5,12C 1379.08,10.8194 1371.74,9.3194 1364.5,7.5C 1363.05,6.38705 1361.39,6.22039 1359.5,7C 1358.45,10.0085 1357.11,12.8419 1355.5,15.5C 1353.96,18.9 1352.13,22.2333 1350,25.5C 1345.45,30.0541 1340.95,34.5541 1336.5,39C 1332.19,42.1585 1327.52,44.8252 1322.5,47C 1318.5,47.3333 1314.5,47.6667 1310.5,48C 873.5,48.5 436.5,48.6667 -0.5,48.5C -0.5,48.1667 -0.5,47.8333 -0.5,47.5C 438.805,47.167 877.971,46.167 1317,44.5C 1318,45.1667 1319,45.8333 1320,46.5C 1332.53,39.8481 1343.2,30.8481 1352,19.5C 1354.02,14.6228 1356.19,9.78944 1358.5,5C 1370.95,7.7381 1383.62,9.57143 1396.5,10.5 Z"/></g>
<g><path style="opacity:0.015" fill="#fafafd" d="M 3254.5,46.5 C 3254.5,47.1667 3254.5,47.8333 3254.5,48.5C 2812.83,48.6667 2371.17,48.5 1929.5,48C 1927.98,46.9914 1926.31,46.4914 1924.5,46.5C 1923.83,46.5 1923.17,46.5 1922.5,46.5C 1916.21,42.0496 1910.04,37.3829 1904,32.5C 1901.33,29.1667 1898.67,25.8333 1896,22.5C 1893.81,17.2881 1890.98,12.4548 1887.5,8C 1884.17,7.33333 1880.83,7.33333 1877.5,8C 1873.22,9.35673 1868.88,10.5234 1864.5,11.5C 1708.33,11.833 1552.33,11.4996 1396.5,10.5C 1552.17,10.6667 1707.83,10.5 1863.5,10C 1870.43,8.39269 1877.27,6.55936 1884,4.5C 1886.83,4.95828 1889.16,6.29162 1891,8.5C 1896.97,22.1249 1906.13,32.9582 1918.5,41C 1922.02,42.924 1925.68,44.5906 1929.5,46C 2371.17,46.5 2812.83,46.6667 3254.5,46.5 Z"/></g>
<g><path style="opacity:0.787" fill="#32304c" d="M 1924.5,46.5 C 1926.31,46.4914 1927.98,46.9914 1929.5,48C 2371.17,48.5 2812.83,48.6667 3254.5,48.5C 3254.5,48.8333 3254.5,49.1667 3254.5,49.5C 3199.17,49.5 3143.83,49.5 3088.5,49.5C 3045.17,49.5 3001.83,49.5 2958.5,49.5C 2790.83,49.5 2623.17,49.5 2455.5,49.5C 2348.5,49.5 2241.5,49.5 2134.5,49.5C 2097.17,49.5 2059.83,49.5 2022.5,49.5C 2008.83,49.5 1995.17,49.5 1981.5,49.5C 1965.17,49.5 1948.83,49.5 1932.5,49.5C 1929.22,49.856 1926.56,48.856 1924.5,46.5 Z"/></g>
<g><path style="opacity:0.966" fill="#7c76b1" d="M 280.5,49.5 C 546.5,49.5 812.5,49.5 1078.5,49.5C 1078.5,50.1667 1078.5,50.8333 1078.5,51.5C 982.18,50.5166 885.847,50.1833 789.5,50.5C 619.666,50.833 449.999,50.4997 280.5,49.5 Z"/></g>
<g><path style="opacity:0.99" fill="#52478b" d="M 1324.5,48.5 C 1324.59,49.4959 1324.25,50.3292 1323.5,51C 1321.87,51.4935 1320.2,51.6602 1318.5,51.5C 1313.57,51.7204 1308.73,52.387 1304,53.5C 1301.59,52.7256 1299.09,52.2256 1296.5,52C 1279.84,51.5001 1263.17,51.3334 1246.5,51.5C 1238.5,51.5 1230.5,51.5 1222.5,51.5C 1211.83,51.5 1201.17,51.5 1190.5,51.5C 1188.05,50.5269 1185.39,50.1936 1182.5,50.5C 1182.5,50.1667 1182.5,49.8333 1182.5,49.5C 1229.88,49.8235 1277.21,49.4902 1324.5,48.5 Z"/></g>
<g><path style="opacity:0.439" fill="#afacb0" d="M 1355.5,48.5 C 1359.97,49.4861 1364.64,49.8195 1369.5,49.5C 1364.5,50.8333 1359.5,50.8333 1354.5,49.5C 1354.5,48.8333 1354.83,48.5 1355.5,48.5 Z"/></g>
<g><path style="opacity:0.986" fill="#534861" d="M 1848.5,48.5 C 1849.17,48.5 1849.5,48.8333 1849.5,49.5C 1851.97,50.3171 1854.64,50.8171 1857.5,51C 1854.18,51.4983 1850.85,51.665 1847.5,51.5C 1847.17,51.5 1846.83,51.5 1846.5,51.5C 1708.33,50.6669 1570,50.1669 1431.5,50C 1570.67,49.8331 1709.67,49.3331 1848.5,48.5 Z"/></g>
<g><path style="opacity:0.971" fill="#7370b8" d="M 1981.5,49.5 C 1995.17,49.5 2008.83,49.5 2022.5,49.5C 2022.5,50.1667 2022.5,50.8333 2022.5,51.5C 2010.67,50.3524 1999.01,50.3524 1987.5,51.5C 1983.5,51.5 1979.5,51.5 1975.5,51.5C 1977.5,50.8333 1979.5,50.1667 1981.5,49.5 Z"/></g>
<g><path style="opacity:1" fill="#6b61a0" d="M 122.5,49.5 C 175.167,49.5 227.833,49.5 280.5,49.5C 449.999,50.4997 619.666,50.833 789.5,50.5C 789.5,50.8333 789.5,51.1667 789.5,51.5C 729.167,51.5 668.833,51.5 608.5,51.5C 471.166,51.6667 333.833,51.5 196.5,51C 171.663,50.8321 146.997,50.3321 122.5,49.5 Z"/></g>
<g><path style="opacity:1" fill="#acc0d6" d="M 1078.5,49.5 C 1113.17,49.5 1147.83,49.5 1182.5,49.5C 1182.5,49.8333 1182.5,50.1667 1182.5,50.5C 1174.49,50.7312 1166.49,51.0645 1158.5,51.5C 1134.5,51.5 1110.5,51.5 1086.5,51.5C 1083.83,51.5 1081.17,51.5 1078.5,51.5C 1078.5,50.8333 1078.5,50.1667 1078.5,49.5 Z"/></g>
<g><path style="opacity:1" fill="#8e90d7" d="M 1182.5,50.5 C 1185.39,50.1936 1188.05,50.5269 1190.5,51.5C 1187.83,51.5 1185.17,51.5 1182.5,51.5C 1174.51,52.0231 1166.51,52.3564 1158.5,52.5C 1158.5,52.1667 1158.5,51.8333 1158.5,51.5C 1166.49,51.0645 1174.49,50.7312 1182.5,50.5 Z"/></g>
<g><path style="opacity:1" fill="#3c3149" d="M 1397.5,49.5 C 1547.67,48.5004 1698,48.167 1848.5,48.5C 1709.67,49.3331 1570.67,49.8331 1431.5,50C 1570,50.1669 1708.33,50.6669 1846.5,51.5C 1693.5,51.5 1540.5,51.5 1387.5,51.5C 1391.42,50.9019 1394.75,50.2352 1397.5,49.5 Z"/></g>
<g><path style="opacity:1" fill="#6b649a" d="M 1932.5,49.5 C 1948.83,49.5 1965.17,49.5 1981.5,49.5C 1979.5,50.1667 1977.5,50.8333 1975.5,51.5C 1961.5,51.6666 1947.5,51.4999 1933.5,51C 1932.94,50.6174 1932.61,50.1174 1932.5,49.5 Z"/></g>
<g><path style="opacity:1" fill="#b6cee8" d="M 2022.5,49.5 C 2059.83,49.5 2097.17,49.5 2134.5,49.5C 2134.5,49.8333 2134.5,50.1667 2134.5,50.5C 2132.59,50.2155 2130.92,50.5489 2129.5,51.5C 2129.17,51.5 2128.83,51.5 2128.5,51.5C 2124.83,51.5 2121.17,51.5 2117.5,51.5C 2090.83,51.5 2064.17,51.5 2037.5,51.5C 2032.5,51.5 2027.5,51.5 2022.5,51.5C 2022.5,50.8333 2022.5,50.1667 2022.5,49.5 Z"/></g>
<g><path style="opacity:1" fill="#6b61a2" d="M 2134.5,50.5 C 2134.5,50.1667 2134.5,49.8333 2134.5,49.5C 2241.5,49.5 2348.5,49.5 2455.5,49.5C 2519.17,50.1667 2582.83,50.8333 2646.5,51.5C 2475.83,51.0352 2305.17,50.7019 2134.5,50.5 Z"/></g>
<g><path style="opacity:1" fill="#6c679c" d="M 2455.5,49.5 C 2623.17,49.5 2790.83,49.5 2958.5,49.5C 2956.03,50.3171 2953.36,50.8171 2950.5,51C 2901.83,51.5 2853.17,51.6667 2804.5,51.5C 2751.83,51.5 2699.17,51.5 2646.5,51.5C 2582.83,50.8333 2519.17,50.1667 2455.5,49.5 Z"/></g>
<g><path style="opacity:1" fill="#544a92" d="M -0.5,50.5 C -0.5,50.1667 -0.5,49.8333 -0.5,49.5C 40.5,49.5 81.5,49.5 122.5,49.5C 146.997,50.3321 171.663,50.8321 196.5,51C 333.833,51.5 471.166,51.6667 608.5,51.5C 451.334,52.6661 294.001,52.8328 136.5,52C 110.514,50.7966 84.5139,50.2966 58.5,50.5C 38.8333,50.5 19.1667,50.5 -0.5,50.5 Z"/></g>
<g><path style="opacity:1" fill="#4c42a7" d="M 838.5,52.5 C 838.5,52.1667 838.5,51.8333 838.5,51.5C 907.5,51.5 976.5,51.5 1045.5,51.5C 1045.54,52.5832 1045.87,53.5832 1046.5,54.5C 1042.02,55.1669 1037.68,55.8336 1033.5,56.5C 966.167,56.5 898.833,56.5 831.5,56.5C 831.5,56.1667 831.5,55.8333 831.5,55.5C 832.5,55.5 833.5,55.5 834.5,55.5C 889.167,55.5 943.833,55.5 998.5,55.5C 998.5,54.5 998.5,53.5 998.5,52.5C 945.5,52.5 892.5,52.5 839.5,52.5C 839.167,52.5 838.833,52.5 838.5,52.5 Z"/></g>
<g><path style="opacity:1" fill="#493594" d="M 1333.5,43.5 C 1332.37,45.4669 1332.7,47.3002 1334.5,49C 1338.66,49.6672 1342.66,49.1672 1346.5,47.5C 1342.51,49.83 1338.51,52.1633 1334.5,54.5C 1329.17,54.5 1323.83,54.5 1318.5,54.5C 1318.5,53.5 1318.5,52.5 1318.5,51.5C 1320.2,51.6602 1321.87,51.4935 1323.5,51C 1324.25,50.3292 1324.59,49.4959 1324.5,48.5C 1327.24,46.4405 1330.24,44.7738 1333.5,43.5 Z"/></g>
<g><path style="opacity:1" fill="#2d1f3a" d="M 1411.5,27.5 C 1527.33,26.5005 1643.33,26.1671 1759.5,26.5C 1786.87,26.053 1814.2,26.553 1841.5,28C 1852.21,34.3429 1861.21,42.5096 1868.5,52.5C 1777.02,53.8176 1685.36,54.4843 1593.5,54.5C 1526.32,54.6764 1459.15,54.0097 1392,52.5C 1387.06,53.2399 1382.22,53.5733 1377.5,53.5C 1377.97,50.7026 1379.63,49.3692 1382.5,49.5C 1383.55,51.256 1385.22,51.9227 1387.5,51.5C 1540.5,51.5 1693.5,51.5 1846.5,51.5C 1846.83,51.5 1847.17,51.5 1847.5,51.5C 1852.31,52.4872 1857.31,52.8205 1862.5,52.5C 1862.9,49.9556 1862.23,47.7889 1860.5,46C 1854.32,43.1589 1849.32,38.8256 1845.5,33C 1842.49,32.2569 1839.82,30.9235 1837.5,29C 1816.86,27.6287 1796.19,27.1287 1775.5,27.5C 1654.17,27.5 1532.83,27.5 1411.5,27.5 Z"/></g>
<g><path style="opacity:1" fill="#554e8d" d="M 2958.5,49.5 C 3001.83,49.5 3045.17,49.5 3088.5,49.5C 3085.36,50.3213 3082.03,50.8213 3078.5,51C 3032.84,52.1404 2987.17,52.6404 2941.5,52.5C 2895.66,52.8321 2850,52.4988 2804.5,51.5C 2853.17,51.6667 2901.83,51.5 2950.5,51C 2953.36,50.8171 2956.03,50.3171 2958.5,49.5 Z"/></g>
<g><path style="opacity:1" fill="#45368f" d="M 3254.5,51.5 C 3254.5,52.8333 3254.5,54.1667 3254.5,55.5C 3205.17,55.5 3155.83,55.5 3106.5,55.5C 3107.61,54.71 3108.94,54.21 3110.5,54C 3104.83,53.6667 3099.17,53.3333 3093.5,53C 3147.15,51.6001 3200.82,51.1001 3254.5,51.5 Z"/></g>
<g><path style="opacity:1" fill="#494090" d="M 58.5,50.5 C 84.5139,50.2966 110.514,50.7966 136.5,52C 294.001,52.8328 451.334,52.6661 608.5,51.5C 668.833,51.5 729.167,51.5 789.5,51.5C 805.833,51.5 822.167,51.5 838.5,51.5C 838.5,51.8333 838.5,52.1667 838.5,52.5C 766.264,51.7504 694.264,52.7504 622.5,55.5C 614.579,54.3671 606.579,54.2004 598.5,55C 600.058,55.21 601.391,55.71 602.5,56.5C 401.5,55.9287 200.5,55.5954 -0.5,55.5C -0.5,55.1667 -0.5,54.8333 -0.5,54.5C 29.9606,54.2148 60.1272,54.2148 90,54.5C 96.2707,54.1323 102.437,53.299 108.5,52C 91.6616,51.8315 74.995,51.3315 58.5,50.5 Z"/></g>
<g><path style="opacity:1" fill="#4036a1" d="M 839.5,52.5 C 892.5,52.5 945.5,52.5 998.5,52.5C 998.5,53.5 998.5,54.5 998.5,55.5C 943.833,55.5 889.167,55.5 834.5,55.5C 836.261,54.6873 837.928,53.6873 839.5,52.5 Z"/></g>
<g><path style="opacity:1" fill="#646ccb" d="M 1182.5,51.5 C 1179.56,52.4664 1176.89,53.7997 1174.5,55.5C 1170.17,55.5 1165.83,55.5 1161.5,55.5C 1160.5,55.5 1159.5,55.5 1158.5,55.5C 1158.5,54.5 1158.5,53.5 1158.5,52.5C 1166.51,52.3564 1174.51,52.0231 1182.5,51.5 Z"/></g>
<g><path style="opacity:1" fill="#41399f" d="M 1222.5,51.5 C 1230.5,51.5 1238.5,51.5 1246.5,51.5C 1247.09,52.1515 1247.76,52.8182 1248.5,53.5C 1247.76,54.1818 1247.09,54.8485 1246.5,55.5C 1234.17,55.5 1221.83,55.5 1209.5,55.5C 1214.08,54.5727 1218.41,53.2393 1222.5,51.5 Z"/></g>
<g><path style="opacity:1" fill="#4a379b" d="M 1894.5,42.5 C 1898.71,44.5236 1903.04,46.357 1907.5,48C 1910.43,48.9533 1913.43,49.4533 1916.5,49.5C 1916.37,47.7839 1916.04,46.1172 1915.5,44.5C 1930.9,52.3739 1929.9,55.7072 1912.5,54.5C 1905.18,52.5123 1899.18,48.5123 1894.5,42.5 Z"/></g>
<g><path style="opacity:1" fill="#473e8f" d="M 1911.5,41.5 C 1915.28,42.9795 1918.95,44.6461 1922.5,46.5C 1923.17,46.5 1923.83,46.5 1924.5,46.5C 1926.56,48.856 1929.22,49.856 1932.5,49.5C 1932.61,50.1174 1932.94,50.6174 1933.5,51C 1947.5,51.4999 1961.5,51.6666 1975.5,51.5C 1979.5,51.5 1983.5,51.5 1987.5,51.5C 1988.17,51.5 1988.83,51.5 1989.5,51.5C 1989.5,53.1667 1989.5,54.8333 1989.5,56.5C 1986.17,56.5 1982.83,56.5 1979.5,56.5C 1956.98,56.6216 1934.65,55.955 1912.5,54.5C 1929.9,55.7072 1930.9,52.3739 1915.5,44.5C 1913.37,44.4456 1912.03,43.4456 1911.5,41.5 Z"/></g>
<g><path style="opacity:1" fill="#4741b7" d="M 2144.5,51.5 C 2154.5,51.5 2164.5,51.5 2174.5,51.5C 2175.26,52.2679 2176.26,52.7679 2177.5,53C 2173.65,53.6334 2169.99,54.4667 2166.5,55.5C 2160.16,55.6662 2153.82,55.4995 2147.5,55C 2145.05,54.7105 2142.71,54.0438 2140.5,53C 2142.06,52.79 2143.39,52.29 2144.5,51.5 Z"/></g>
<g><path style="opacity:1" fill="#534c9a" d="M 2129.5,51.5 C 2130.92,50.5489 2132.59,50.2155 2134.5,50.5C 2305.17,50.7019 2475.83,51.0352 2646.5,51.5C 2699.17,51.5 2751.83,51.5 2804.5,51.5C 2850,52.4988 2895.66,52.8321 2941.5,52.5C 2948.3,53.8215 2955.3,54.6548 2962.5,55C 3010.5,55.5 3058.5,55.6667 3106.5,55.5C 3155.83,55.5 3205.17,55.5 3254.5,55.5C 3254.5,55.8333 3254.5,56.1667 3254.5,56.5C 3133.83,56.7839 3013.16,56.4505 2892.5,55.5C 2866,54.2911 2839.33,54.2911 2812.5,55.5C 2789.23,53.9116 2765.9,52.9116 2742.5,52.5C 2678.17,52.5 2613.83,52.5 2549.5,52.5C 2504.5,52.5 2459.5,52.5 2414.5,52.5C 2334.51,51.523 2254.51,51.1897 2174.5,51.5C 2164.5,51.5 2154.5,51.5 2144.5,51.5C 2139.5,51.5 2134.5,51.5 2129.5,51.5 Z"/></g>
<g><path style="opacity:1" fill="#463c88" d="M 3088.5,49.5 C 3143.83,49.5 3199.17,49.5 3254.5,49.5C 3254.5,50.1667 3254.5,50.8333 3254.5,51.5C 3200.82,51.1001 3147.15,51.6001 3093.5,53C 3099.17,53.3333 3104.83,53.6667 3110.5,54C 3108.94,54.21 3107.61,54.71 3106.5,55.5C 3058.5,55.6667 3010.5,55.5 2962.5,55C 2955.3,54.6548 2948.3,53.8215 2941.5,52.5C 2987.17,52.6404 3032.84,52.1404 3078.5,51C 3082.03,50.8213 3085.36,50.3213 3088.5,49.5 Z"/></g>
<g><path style="opacity:1" fill="#443391" d="M -0.5,50.5 C 19.1667,50.5 38.8333,50.5 58.5,50.5C 74.995,51.3315 91.6616,51.8315 108.5,52C 102.437,53.299 96.2707,54.1323 90,54.5C 60.1272,54.2148 29.9606,54.2148 -0.5,54.5C -0.5,53.1667 -0.5,51.8333 -0.5,50.5 Z"/></g>
<g><path style="opacity:1" fill="#3e338b" d="M 838.5,52.5 C 838.833,52.5 839.167,52.5 839.5,52.5C 837.928,53.6873 836.261,54.6873 834.5,55.5C 833.5,55.5 832.5,55.5 831.5,55.5C 761.833,55.5 692.167,55.5 622.5,55.5C 694.264,52.7504 766.264,51.7504 838.5,52.5 Z"/></g>
<g><path style="opacity:1" fill="#768fcb" d="M 1086.5,51.5 C 1110.5,51.5 1134.5,51.5 1158.5,51.5C 1158.5,51.8333 1158.5,52.1667 1158.5,52.5C 1158.5,53.5 1158.5,54.5 1158.5,55.5C 1159.5,55.5 1160.5,55.5 1161.5,55.5C 1162.95,56.3019 1164.62,56.8019 1166.5,57C 1161.32,57.1739 1156.32,57.6739 1151.5,58.5C 1128.5,58.5 1105.5,58.5 1082.5,58.5C 1079.83,58.5 1077.17,58.5 1074.5,58.5C 1074.5,57.8333 1074.17,57.5 1073.5,57.5C 1080.29,55.9448 1087.29,54.7781 1094.5,54C 1091.83,52.9395 1089.17,52.1061 1086.5,51.5 Z"/></g>
<g><path style="opacity:1" fill="#5049c2" d="M 1182.5,51.5 C 1185.17,51.5 1187.83,51.5 1190.5,51.5C 1201.17,51.5 1211.83,51.5 1222.5,51.5C 1218.41,53.2393 1214.08,54.5727 1209.5,55.5C 1197.83,55.5 1186.17,55.5 1174.5,55.5C 1176.89,53.7997 1179.56,52.4664 1182.5,51.5 Z"/></g>
<g><path style="opacity:1" fill="#271938" d="M 1350.5,51.5 C 1350.41,52.4959 1350.75,53.3292 1351.5,54C 1359.22,54.2178 1366.89,53.7178 1374.5,52.5C 1374.5,52.8333 1374.5,53.1667 1374.5,53.5C 1374.17,54.1667 1373.83,54.8333 1373.5,55.5C 1363.16,55.6665 1352.83,55.4998 1342.5,55C 1344.57,52.4657 1347.24,51.2991 1350.5,51.5 Z"/></g>
<g><path style="opacity:1" fill="#201628" d="M 1857.5,28.5 C 1855.8,28.3398 1854.13,28.5065 1852.5,29C 1856.49,32.9831 1860.82,36.6498 1865.5,40C 1865.17,40.3333 1864.83,40.6667 1864.5,41C 1868.34,43.8389 1871.01,47.5056 1872.5,52C 1875.1,52.769 1877.6,52.6023 1880,51.5C 1883.74,53.2082 1887.57,53.5416 1891.5,52.5C 1892.65,51.3132 1892.65,50.3132 1891.5,49.5C 1890.89,48.609 1890.56,47.609 1890.5,46.5C 1892.63,48.4025 1894.96,50.0692 1897.5,51.5C 1898.43,52.6888 1898.76,54.0222 1898.5,55.5C 1890.16,55.6664 1881.83,55.4997 1873.5,55C 1866.66,45.6628 1858.66,37.4962 1849.5,30.5C 1849.41,29.5041 1849.75,28.6708 1850.5,28C 1853.04,27.2042 1855.37,27.3709 1857.5,28.5 Z"/></g>
<g><path style="opacity:1" fill="#332859" d="M 1884.5,33.5 C 1884.83,33.5 1885.17,33.5 1885.5,33.5C 1886.35,36.6811 1888.02,39.3477 1890.5,41.5C 1895.18,47.3421 1900.84,52.0088 1907.5,55.5C 1906.68,56.3857 1905.68,56.719 1904.5,56.5C 1902.56,55.8505 1900.56,55.5172 1898.5,55.5C 1898.76,54.0222 1898.43,52.6888 1897.5,51.5C 1894.96,50.0692 1892.63,48.4025 1890.5,46.5C 1889.19,43.2223 1887.36,40.2223 1885,37.5C 1884.51,36.2068 1884.34,34.8734 1884.5,33.5 Z"/></g>
<g><path style="opacity:1" fill="#6671cc" d="M 2117.5,51.5 C 2121.17,51.5 2124.83,51.5 2128.5,51.5C 2126.71,52.3091 2124.71,52.8091 2122.5,53C 2123.86,53.9344 2125.19,54.7677 2126.5,55.5C 2118.83,55.6664 2111.16,55.4997 2103.5,55C 2103.17,54.6667 2102.83,54.3333 2102.5,54C 2107.64,53.1617 2112.64,52.3284 2117.5,51.5 Z"/></g>
<g><path style="opacity:1" fill="#3e3289" d="M 2414.5,52.5 C 2459.5,52.5 2504.5,52.5 2549.5,52.5C 2552.47,53.6255 2555.47,54.6255 2558.5,55.5C 2510.5,55.5 2462.5,55.5 2414.5,55.5C 2413.13,55.6567 2411.79,55.49 2410.5,55C 2415.17,54.6667 2419.83,54.3333 2424.5,54C 2420.97,53.8213 2417.64,53.3213 2414.5,52.5 Z"/></g>
<g><path style="opacity:1" fill="#413887" d="M 2549.5,52.5 C 2613.83,52.5 2678.17,52.5 2742.5,52.5C 2742.5,53.5 2742.5,54.5 2742.5,55.5C 2681.17,55.5 2619.83,55.5 2558.5,55.5C 2555.47,54.6255 2552.47,53.6255 2549.5,52.5 Z"/></g>
<g><path style="opacity:1" fill="#5150ca" d="M 1045.5,51.5 C 1056.59,51.0497 1067.59,51.7164 1078.5,53.5C 1078,53.8333 1077.5,54.1667 1077,54.5C 1062.56,56.1647 1048.06,56.8314 1033.5,56.5C 1037.68,55.8336 1042.02,55.1669 1046.5,54.5C 1045.87,53.5832 1045.54,52.5832 1045.5,51.5 Z"/></g>
<g><path style="opacity:1" fill="#3d3181" d="M 1246.5,51.5 C 1263.17,51.3334 1279.84,51.5001 1296.5,52C 1299.09,52.2256 1301.59,52.7256 1304,53.5C 1308.73,52.387 1313.57,51.7204 1318.5,51.5C 1318.5,52.5 1318.5,53.5 1318.5,54.5C 1323.83,54.5 1329.17,54.5 1334.5,54.5C 1312.68,55.7177 1290.68,56.3844 1268.5,56.5C 1261.2,55.6502 1253.87,55.3169 1246.5,55.5C 1247.09,54.8485 1247.76,54.1818 1248.5,53.5C 1247.76,52.8182 1247.09,52.1515 1246.5,51.5 Z"/></g>
<g><path style="opacity:1" fill="#352548" d="M 1868.5,52.5 C 1869.48,52.811 1870.14,53.4777 1870.5,54.5C 1841.51,55.4998 1812.51,55.8332 1783.5,55.5C 1648.05,55.4945 1512.72,55.4945 1377.5,55.5C 1376.7,55.0431 1376.37,54.3764 1376.5,53.5C 1376.83,53.5 1377.17,53.5 1377.5,53.5C 1382.22,53.5733 1387.06,53.2399 1392,52.5C 1459.15,54.0097 1526.32,54.6764 1593.5,54.5C 1685.36,54.4843 1777.02,53.8176 1868.5,52.5 Z"/></g>
<g><path style="opacity:1" fill="#4b47c2" d="M 1989.5,51.5 C 1997.17,51.3336 2004.84,51.5003 2012.5,52C 2016.03,52.089 2019.36,52.7556 2022.5,54C 2011.63,55.866 2000.63,56.6993 1989.5,56.5C 1989.5,54.8333 1989.5,53.1667 1989.5,51.5 Z"/></g>
<g><path style="opacity:1" fill="#768dcd" d="M 2037.5,51.5 C 2064.17,51.5 2090.83,51.5 2117.5,51.5C 2112.64,52.3284 2107.64,53.1617 2102.5,54C 2102.83,54.3333 2103.17,54.6667 2103.5,55C 2111.16,55.4997 2118.83,55.6664 2126.5,55.5C 2129.39,55.1936 2132.05,55.5269 2134.5,56.5C 2134.5,57.1667 2134.5,57.8333 2134.5,58.5C 2104.5,58.5 2074.5,58.5 2044.5,58.5C 2044.5,58.1667 2044.5,57.8333 2044.5,57.5C 2062.84,57.6666 2081.17,57.4999 2099.5,57C 2081.26,55.5264 2062.93,55.0264 2044.5,55.5C 2042.28,54.0592 2039.94,52.7259 2037.5,51.5 Z"/></g>
<g><path style="opacity:1" fill="#453ca5" d="M 2174.5,51.5 C 2254.51,51.1897 2334.51,51.523 2414.5,52.5C 2417.64,53.3213 2420.97,53.8213 2424.5,54C 2419.83,54.3333 2415.17,54.6667 2410.5,55C 2411.79,55.49 2413.13,55.6567 2414.5,55.5C 2414.5,55.8333 2414.5,56.1667 2414.5,56.5C 2413.83,56.5 2413.17,56.5 2412.5,56.5C 2332.49,56.766 2252.49,56.4327 2172.5,55.5C 2170.5,55.5 2168.5,55.5 2166.5,55.5C 2169.99,54.4667 2173.65,53.6334 2177.5,53C 2176.26,52.7679 2175.26,52.2679 2174.5,51.5 Z"/></g>
<g><path style="opacity:1" fill="#4c439d" d="M 622.5,55.5 C 692.167,55.5 761.833,55.5 831.5,55.5C 831.5,55.8333 831.5,56.1667 831.5,56.5C 830.833,56.5 830.167,56.5 829.5,56.5C 753.833,56.5 678.167,56.5 602.5,56.5C 601.391,55.71 600.058,55.21 598.5,55C 606.579,54.2004 614.579,54.3671 622.5,55.5 Z"/></g>
<g><path style="opacity:1" fill="#9bb6ea" d="M 1110.5,55.5 C 1123.87,55.1946 1137.2,55.6946 1150.5,57C 1134.5,57.6667 1118.5,57.6667 1102.5,57C 1105.36,56.8171 1108.03,56.3171 1110.5,55.5 Z"/></g>
<g><path style="opacity:1" fill="#483962" d="M 1374.5,53.5 C 1375.17,53.5 1375.83,53.5 1376.5,53.5C 1376.37,54.3764 1376.7,55.0431 1377.5,55.5C 1512.72,55.4945 1648.05,55.4945 1783.5,55.5C 1783.5,55.8333 1783.5,56.1667 1783.5,56.5C 1646.76,56.8315 1510.1,56.4982 1373.5,55.5C 1373.83,54.8333 1374.17,54.1667 1374.5,53.5 Z"/></g>
<g><path style="opacity:1" fill="#94b2e8" d="M 2044.5,55.5 C 2062.93,55.0264 2081.26,55.5264 2099.5,57C 2081.17,57.4999 2062.84,57.6666 2044.5,57.5C 2031.26,57.4742 2031.26,56.8075 2044.5,55.5 Z"/></g>
<g><path style="opacity:1" fill="#6461ce" d="M 2128.5,51.5 C 2128.83,51.5 2129.17,51.5 2129.5,51.5C 2134.5,51.5 2139.5,51.5 2144.5,51.5C 2143.39,52.29 2142.06,52.79 2140.5,53C 2142.71,54.0438 2145.05,54.7105 2147.5,55C 2153.82,55.4995 2160.16,55.6662 2166.5,55.5C 2168.5,55.5 2170.5,55.5 2172.5,55.5C 2160.01,56.4954 2147.34,56.8287 2134.5,56.5C 2132.05,55.5269 2129.39,55.1936 2126.5,55.5C 2125.19,54.7677 2123.86,53.9344 2122.5,53C 2124.71,52.8091 2126.71,52.3091 2128.5,51.5 Z"/></g>
<g><path style="opacity:1" fill="#4a4498" d="M 2742.5,52.5 C 2765.9,52.9116 2789.23,53.9116 2812.5,55.5C 2839.33,54.2911 2866,54.2911 2892.5,55.5C 2733.18,56.4915 2573.85,56.8248 2414.5,56.5C 2414.5,56.1667 2414.5,55.8333 2414.5,55.5C 2462.5,55.5 2510.5,55.5 2558.5,55.5C 2619.83,55.5 2681.17,55.5 2742.5,55.5C 2742.5,54.5 2742.5,53.5 2742.5,52.5 Z"/></g>
<g><path style="opacity:1" fill="#534f97" d="M -0.5,55.5 C 200.5,55.5954 401.5,55.9287 602.5,56.5C 678.167,56.5 753.833,56.5 829.5,56.5C 910.665,57.4993 991.998,57.8326 1073.5,57.5C 1074.17,57.5 1074.5,57.8333 1074.5,58.5C 984.833,58.5 895.167,58.5 805.5,58.5C 536.833,58.5 268.167,58.5 -0.5,58.5C -0.5,57.5 -0.5,56.5 -0.5,55.5 Z"/></g>
<g><path style="opacity:1" fill="#6863bf" d="M 789.5,51.5 C 789.5,51.1667 789.5,50.8333 789.5,50.5C 885.847,50.1833 982.18,50.5166 1078.5,51.5C 1081.17,51.5 1083.83,51.5 1086.5,51.5C 1089.17,52.1061 1091.83,52.9395 1094.5,54C 1087.29,54.7781 1080.29,55.9448 1073.5,57.5C 991.998,57.8326 910.665,57.4993 829.5,56.5C 830.167,56.5 830.833,56.5 831.5,56.5C 898.833,56.5 966.167,56.5 1033.5,56.5C 1048.06,56.8314 1062.56,56.1647 1077,54.5C 1077.5,54.1667 1078,53.8333 1078.5,53.5C 1067.59,51.7164 1056.59,51.0497 1045.5,51.5C 976.5,51.5 907.5,51.5 838.5,51.5C 822.167,51.5 805.833,51.5 789.5,51.5 Z"/></g>
<g><path style="opacity:1" fill="#6965bc" d="M 1174.5,55.5 C 1186.17,55.5 1197.83,55.5 1209.5,55.5C 1221.83,55.5 1234.17,55.5 1246.5,55.5C 1253.87,55.3169 1261.2,55.6502 1268.5,56.5C 1268.5,56.8333 1268.5,57.1667 1268.5,57.5C 1240.5,57.5 1212.5,57.5 1184.5,57.5C 1181.17,56.8333 1177.83,56.1667 1174.5,55.5 Z"/></g>
<g><path style="opacity:1" fill="#6357a0" d="M 1354.5,40.5 C 1354.5,41.1667 1354.5,41.8333 1354.5,42.5C 1354.59,43.4959 1354.25,44.3292 1353.5,45C 1348.43,48.8535 1343.43,52.6868 1338.5,56.5C 1338.5,56.8333 1338.5,57.1667 1338.5,57.5C 1315.17,57.5 1291.83,57.5 1268.5,57.5C 1268.5,57.1667 1268.5,56.8333 1268.5,56.5C 1290.68,56.3844 1312.68,55.7177 1334.5,54.5C 1338.51,52.1633 1342.51,49.83 1346.5,47.5C 1347.85,45.8173 1349.52,44.4839 1351.5,43.5C 1352.73,42.6935 1353.73,41.6935 1354.5,40.5 Z"/></g>
<g><path style="opacity:1" fill="#61537c" d="M 1373.5,55.5 C 1510.1,56.4982 1646.76,56.8315 1783.5,56.5C 1677.84,57.5291 1529.5,57.8625 1338.5,57.5C 1338.5,57.1667 1338.5,56.8333 1338.5,56.5C 1350.35,56.8283 1362.01,56.4949 1373.5,55.5 Z"/></g>
<g><path style="opacity:1" fill="#5f57a2" d="M 1891.5,39.5 C 1892.5,40.1667 1893.5,40.8333 1894.5,41.5C 1894.5,41.8333 1894.5,42.1667 1894.5,42.5C 1899.18,48.5123 1905.18,52.5123 1912.5,54.5C 1934.65,55.955 1956.98,56.6216 1979.5,56.5C 1979.5,56.8333 1979.5,57.1667 1979.5,57.5C 1954.33,57.831 1929.33,57.4977 1904.5,56.5C 1905.68,56.719 1906.68,56.3857 1907.5,55.5C 1900.84,52.0088 1895.18,47.3421 1890.5,41.5C 1891.34,41.1583 1891.67,40.4916 1891.5,39.5 Z"/></g>
<g><path style="opacity:1" fill="#6667ca" d="M 1987.5,51.5 C 1999.01,50.3524 2010.67,50.3524 2022.5,51.5C 2025.03,52.1657 2027.69,52.8324 2030.5,53.5C 2026.7,54.2446 2023.03,55.4113 2019.5,57C 2024.02,57.1753 2028.35,57.6753 2032.5,58.5C 2023.83,58.5 2015.17,58.5 2006.5,58.5C 1997.68,57.5067 1988.68,57.1734 1979.5,57.5C 1979.5,57.1667 1979.5,56.8333 1979.5,56.5C 1982.83,56.5 1986.17,56.5 1989.5,56.5C 2000.63,56.6993 2011.63,55.866 2022.5,54C 2019.36,52.7556 2016.03,52.089 2012.5,52C 2004.84,51.5003 1997.17,51.3336 1989.5,51.5C 1988.83,51.5 1988.17,51.5 1987.5,51.5 Z"/></g>
<g><path style="opacity:1" fill="#707fd3" d="M 2022.5,51.5 C 2027.5,51.5 2032.5,51.5 2037.5,51.5C 2039.94,52.7259 2042.28,54.0592 2044.5,55.5C 2031.26,56.8075 2031.26,57.4742 2044.5,57.5C 2044.5,57.8333 2044.5,58.1667 2044.5,58.5C 2040.5,58.5 2036.5,58.5 2032.5,58.5C 2028.35,57.6753 2024.02,57.1753 2019.5,57C 2023.03,55.4113 2026.7,54.2446 2030.5,53.5C 2027.69,52.8324 2025.03,52.1657 2022.5,51.5 Z"/></g>
<g><path style="opacity:1" fill="#6762c0" d="M 2172.5,55.5 C 2252.49,56.4327 2332.49,56.766 2412.5,56.5C 2328.83,57.1667 2245.17,57.8333 2161.5,58.5C 2158.5,58.5 2155.5,58.5 2152.5,58.5C 2146.5,58.5 2140.5,58.5 2134.5,58.5C 2134.5,57.8333 2134.5,57.1667 2134.5,56.5C 2147.34,56.8287 2160.01,56.4954 2172.5,55.5 Z"/></g>
<g><path style="opacity:1" fill="#514e91" d="M 2892.5,55.5 C 3013.16,56.4505 3133.83,56.7839 3254.5,56.5C 3254.5,57.1667 3254.5,57.8333 3254.5,58.5C 2890.17,58.5 2525.83,58.5 2161.5,58.5C 2245.17,57.8333 2328.83,57.1667 2412.5,56.5C 2413.17,56.5 2413.83,56.5 2414.5,56.5C 2573.85,56.8248 2733.18,56.4915 2892.5,55.5 Z"/></g>
<g><path style="opacity:1" fill="#7381c9" d="M 1161.5,55.5 C 1165.83,55.5 1170.17,55.5 1174.5,55.5C 1177.83,56.1667 1181.17,56.8333 1184.5,57.5C 1173.55,58.4553 1162.55,58.7886 1151.5,58.5C 1156.32,57.6739 1161.32,57.1739 1166.5,57C 1164.62,56.8019 1162.95,56.3019 1161.5,55.5 Z"/></g>
<g><path style="opacity:1" fill="#3b3b75" d="M 1184.5,57.5 C 1212.5,57.5 1240.5,57.5 1268.5,57.5C 1291.83,57.5 1315.17,57.5 1338.5,57.5C 1338.5,57.8333 1338.5,58.1667 1338.5,58.5C 1337.5,58.5 1336.5,58.5 1335.5,58.5C 1298.17,58.5 1260.83,58.5 1223.5,58.5C 1205.82,58.4063 1188.16,58.7396 1170.5,59.5C 1146.17,59.5 1121.83,59.5 1097.5,59.5C 1092.31,59.8205 1087.31,59.4872 1082.5,58.5C 1105.5,58.5 1128.5,58.5 1151.5,58.5C 1162.55,58.7886 1173.55,58.4553 1184.5,57.5 Z"/></g>
<g><path style="opacity:1" fill="#161347" d="M 805.5,58.5 C 895.167,58.5 984.833,58.5 1074.5,58.5C 1077.17,58.5 1079.83,58.5 1082.5,58.5C 1087.31,59.4872 1092.31,59.8205 1097.5,59.5C 1097.5,59.8333 1097.5,60.1667 1097.5,60.5C 1088.17,60.5 1078.83,60.5 1069.5,60.5C 1067.17,60.5 1064.83,60.5 1062.5,60.5C 976.833,59.8333 891.167,59.1667 805.5,58.5 Z"/></g>
<g><path style="opacity:1" fill="#160f29" d="M 1335.5,58.5 C 1336.5,58.5 1337.5,58.5 1338.5,58.5C 1527.83,58.5 1717.17,58.5 1906.5,58.5C 1939.5,59.1667 1972.5,59.8333 2005.5,60.5C 1846.5,60.5 1687.5,60.5 1528.5,60.5C 1437.17,60.5 1345.83,60.5 1254.5,60.5C 1244.5,60.5 1234.5,60.5 1224.5,60.5C 1261.5,59.8333 1298.5,59.1667 1335.5,58.5 Z"/></g>
<g><path style="opacity:1" fill="#141131" d="M -0.5,58.5 C 268.167,58.5 536.833,58.5 805.5,58.5C 891.167,59.1667 976.833,59.8333 1062.5,60.5C 1057.83,60.5 1053.17,60.5 1048.5,60.5C 847.833,60.5 647.167,60.5 446.5,60.5C 297.5,60.5 148.5,60.5 -0.5,60.5C -0.5,59.8333 -0.5,59.1667 -0.5,58.5 Z"/></g>
<g><path style="opacity:1" fill="#141133" d="M 2152.5,58.5 C 2155.5,58.5 2158.5,58.5 2161.5,58.5C 2525.83,58.5 2890.17,58.5 3254.5,58.5C 3254.5,59.1667 3254.5,59.8333 3254.5,60.5C 3174.17,60.5 3093.83,60.5 3013.5,60.5C 2728.5,60.5 2443.5,60.5 2158.5,60.5C 2156.17,60.5 2153.83,60.5 2151.5,60.5C 2151.83,59.8333 2152.17,59.1667 2152.5,58.5 Z"/></g>
<g><path style="opacity:1" fill="#23192e" d="M 446.5,60.5 C 647.167,60.5 847.833,60.5 1048.5,60.5C 1048.39,61.1174 1048.06,61.6174 1047.5,62C 1050.88,62.1764 1054.22,62.6764 1057.5,63.5C 1078.67,63.8333 1099.83,64.1667 1121,64.5C 1149.75,64.7156 1178.42,64.0489 1207,62.5C 1207.56,63.0219 1208.23,63.3552 1209,63.5C 1213.63,61.5847 1218.29,61.2513 1223,62.5C 1223.72,61.9558 1224.22,61.2891 1224.5,60.5C 1234.5,60.5 1244.5,60.5 1254.5,60.5C 1254.5,61.5 1254.5,62.5 1254.5,63.5C 1247.98,63.6318 1241.48,63.2985 1235,62.5C 1232.7,62.4944 1230.53,62.9944 1228.5,64C 1215.66,64.1691 1202.99,64.6691 1190.5,65.5C 1142.5,65.5 1094.5,65.5 1046.5,65.5C 844,64.6668 641.334,64.1668 438.5,64C 441.5,63.6667 444.5,63.3333 447.5,63C 444.167,62.6667 440.833,62.3333 437.5,62C 440.695,61.8195 443.695,61.3195 446.5,60.5 Z"/></g>
<g><path style="opacity:1" fill="#2a276b" d="M 1097.5,60.5 C 1097.5,60.1667 1097.5,59.8333 1097.5,59.5C 1121.83,59.5 1146.17,59.5 1170.5,59.5C 1169.39,60.29 1168.06,60.79 1166.5,61C 1143.48,61.7808 1120.48,61.6142 1097.5,60.5 Z"/></g>
<g><path style="opacity:1" fill="#30293a" d="M 1528.5,60.5 C 1687.5,60.5 1846.5,60.5 2005.5,60.5C 2010.25,62.2309 2015.25,63.3976 2020.5,64C 2056.5,64.6667 2092.5,64.6667 2128.5,64C 2137.86,63.6284 2147.19,62.9618 2156.5,62C 2157.42,61.7216 2158.08,61.2216 2158.5,60.5C 2443.5,60.5 2728.5,60.5 3013.5,60.5C 3013.81,61.4778 3014.48,62.1445 3015.5,62.5C 3020.08,62.365 3024.58,62.0317 3029,61.5C 3031.21,62.7595 3033.71,63.4262 3036.5,63.5C 3051.4,62.9497 3066.23,62.2831 3081,61.5C 3101.47,62.1214 3124.31,62.1214 3149.5,61.5C 3161.13,62.285 3172.8,62.9517 3184.5,63.5C 3190.86,63.0311 3197.19,62.3645 3203.5,61.5C 3220.48,62.4579 3237.48,62.7912 3254.5,62.5C 3254.5,63.1667 3254.5,63.8333 3254.5,64.5C 2882.5,64.3333 2510.5,64.5 2138.5,65C 2509.17,65.5 2879.83,65.6667 3250.5,65.5C 3249.79,66.404 3248.79,66.7373 3247.5,66.5C 2164.83,66.5 1082.17,66.5 -0.5,66.5C -0.5,66.1667 -0.5,65.8333 -0.5,65.5C 348.5,65.5 697.5,65.5 1046.5,65.5C 1094.5,65.5 1142.5,65.5 1190.5,65.5C 1462.5,65.6667 1734.5,65.5 2006.5,65C 1977.17,64.0239 1947.84,63.1905 1918.5,62.5C 1809.37,63.1926 1700.04,63.3593 1590.5,63C 1587.24,62.7883 1584.08,62.2883 1581,61.5C 1578.67,61.8333 1576.33,62.1667 1574,62.5C 1558.74,61.8407 1543.57,61.174 1528.5,60.5 Z"/></g>
<g><path style="opacity:1" fill="#221d34" d="M 3013.5,60.5 C 3093.83,60.5 3174.17,60.5 3254.5,60.5C 3254.5,61.1667 3254.5,61.8333 3254.5,62.5C 3237.48,62.7912 3220.48,62.4579 3203.5,61.5C 3197.19,62.3645 3190.86,63.0311 3184.5,63.5C 3172.8,62.9517 3161.13,62.285 3149.5,61.5C 3124.31,62.1214 3101.47,62.1214 3081,61.5C 3066.23,62.2831 3051.4,62.9497 3036.5,63.5C 3033.71,63.4262 3031.21,62.7595 3029,61.5C 3024.58,62.0317 3020.08,62.365 3015.5,62.5C 3014.48,62.1445 3013.81,61.4778 3013.5,60.5 Z"/></g>
<g><path style="opacity:1" fill="#1f1a2a" d="M -0.5,60.5 C 148.5,60.5 297.5,60.5 446.5,60.5C 443.695,61.3195 440.695,61.8195 437.5,62C 440.833,62.3333 444.167,62.6667 447.5,63C 444.5,63.3333 441.5,63.6667 438.5,64C 641.334,64.1668 844,64.6668 1046.5,65.5C 697.5,65.5 348.5,65.5 -0.5,65.5C -0.5,63.8333 -0.5,62.1667 -0.5,60.5 Z"/></g>
<g><path style="opacity:1" fill="#262055" d="M 1223.5,58.5 C 1207.89,59.06 1192.23,60.56 1176.5,63C 1143.16,63.6861 1109.82,63.3528 1076.5,62C 1073.96,61.8138 1071.63,61.3138 1069.5,60.5C 1078.83,60.5 1088.17,60.5 1097.5,60.5C 1120.48,61.6142 1143.48,61.7808 1166.5,61C 1168.06,60.79 1169.39,60.29 1170.5,59.5C 1188.16,58.7396 1205.82,58.4063 1223.5,58.5 Z"/></g>
<g><path style="opacity:1" fill="#272564" d="M 2006.5,58.5 C 2015.17,58.5 2023.83,58.5 2032.5,58.5C 2036.5,58.5 2040.5,58.5 2044.5,58.5C 2074.5,58.5 2104.5,58.5 2134.5,58.5C 2140.5,58.5 2146.5,58.5 2152.5,58.5C 2152.17,59.1667 2151.83,59.8333 2151.5,60.5C 2143.16,60.3336 2134.83,60.5003 2126.5,61C 2125.94,61.3826 2125.61,61.8826 2125.5,62.5C 2090.47,62.8036 2055.47,62.1369 2020.5,60.5C 2015.68,60.0076 2011.01,59.341 2006.5,58.5 Z"/></g>
<g><path style="opacity:1" fill="#221b3e" d="M 1223.5,58.5 C 1260.83,58.5 1298.17,58.5 1335.5,58.5C 1298.5,59.1667 1261.5,59.8333 1224.5,60.5C 1224.22,61.2891 1223.72,61.9558 1223,62.5C 1218.29,61.2513 1213.63,61.5847 1209,63.5C 1208.23,63.3552 1207.56,63.0219 1207,62.5C 1178.42,64.0489 1149.75,64.7156 1121,64.5C 1099.83,64.1667 1078.67,63.8333 1057.5,63.5C 1054.22,62.6764 1050.88,62.1764 1047.5,62C 1048.06,61.6174 1048.39,61.1174 1048.5,60.5C 1053.17,60.5 1057.83,60.5 1062.5,60.5C 1064.83,60.5 1067.17,60.5 1069.5,60.5C 1071.63,61.3138 1073.96,61.8138 1076.5,62C 1109.82,63.3528 1143.16,63.6861 1176.5,63C 1192.23,60.56 1207.89,59.06 1223.5,58.5 Z"/></g>
<g><path style="opacity:1" fill="#1a1622" d="M 1254.5,60.5 C 1345.83,60.5 1437.17,60.5 1528.5,60.5C 1543.57,61.174 1558.74,61.8407 1574,62.5C 1576.33,62.1667 1578.67,61.8333 1581,61.5C 1584.08,62.2883 1587.24,62.7883 1590.5,63C 1700.04,63.3593 1809.37,63.1926 1918.5,62.5C 1947.84,63.1905 1977.17,64.0239 2006.5,65C 1734.5,65.5 1462.5,65.6667 1190.5,65.5C 1202.99,64.6691 1215.66,64.1691 1228.5,64C 1230.53,62.9944 1232.7,62.4944 1235,62.5C 1241.48,63.2985 1247.98,63.6318 1254.5,63.5C 1254.5,62.5 1254.5,61.5 1254.5,60.5 Z"/></g>
<g><path style="opacity:1" fill="#221c41" d="M 1906.5,58.5 C 1939.83,58.5 1973.17,58.5 2006.5,58.5C 2011.01,59.341 2015.68,60.0076 2020.5,60.5C 2028.7,61.2103 2037.03,62.0436 2045.5,63C 2072.34,63.8302 2099,63.6635 2125.5,62.5C 2125.61,61.8826 2125.94,61.3826 2126.5,61C 2134.83,60.5003 2143.16,60.3336 2151.5,60.5C 2153.83,60.5 2156.17,60.5 2158.5,60.5C 2158.08,61.2216 2157.42,61.7216 2156.5,62C 2147.19,62.9618 2137.86,63.6284 2128.5,64C 2092.5,64.6667 2056.5,64.6667 2020.5,64C 2015.25,63.3976 2010.25,62.2309 2005.5,60.5C 1972.5,59.8333 1939.5,59.1667 1906.5,58.5 Z"/></g>
<g><path style="opacity:1" fill="#282153" d="M 2020.5,60.5 C 2055.47,62.1369 2090.47,62.8036 2125.5,62.5C 2099,63.6635 2072.34,63.8302 2045.5,63C 2037.03,62.0436 2028.7,61.2103 2020.5,60.5 Z"/></g>
<g><path style="opacity:0.956" fill="#17111d" d="M 3254.5,64.5 C 3254.5,65.1667 3254.5,65.8333 3254.5,66.5C 3253.17,66.1667 3251.83,65.8333 3250.5,65.5C 2879.83,65.6667 2509.17,65.5 2138.5,65C 2510.5,64.5 2882.5,64.3333 3254.5,64.5 Z"/></g>
<g><path style="opacity:0.224" fill="#fefefe" d="M -0.5,67.5 C -0.5,67.1667 -0.5,66.8333 -0.5,66.5C 1082.17,66.5 2164.83,66.5 3247.5,66.5C 3246.44,68.0414 3244.94,69.0414 3243,69.5C 3240.18,68.9461 3237.34,68.4461 3234.5,68C 2156.17,67.5 1077.83,67.3333 -0.5,67.5 Z"/></g>
<g><path style="opacity:0.301" fill="#fffeff" d="M 3254.5,73.5 C 3254.5,74.1667 3254.5,74.8333 3254.5,75.5C 3253.83,75.5 3253.17,75.5 3252.5,75.5C 3252.83,74.5 3253.5,73.8333 3254.5,73.5 Z"/></g>
</svg>
