<?xml version="1.0" encoding="UTF-8"?>
<!DOCTYPE svg PUBLIC "-//W3C//DTD SVG 1.1//EN" "http://www.w3.org/Graphics/SVG/1.1/DTD/svg11.dtd">
<svg xmlns="http://www.w3.org/2000/svg" version="1.1" width="3255px" height="76px" style="shape-rendering:geometricPrecision; text-rendering:geometricPrecision; image-rendering:optimizeQuality; fill-rule:evenodd; clip-rule:evenodd" xmlns:xlink="http://www.w3.org/1999/xlink">
<g><path style="opacity:0.301" fill="#fffeff" d="M -0.5,-0.5 C 0.166667,-0.5 0.833333,-0.5 1.5,-0.5C 1.16667,0.5 0.5,1.16667 -0.5,1.5C -0.5,0.833333 -0.5,0.166667 -0.5,-0.5 Z"/></g>
<g><path style="opacity:0.224" fill="#fefefe" d="M 3254.5,7.5 C 3254.5,7.83333 3254.5,8.16667 3254.5,8.5C 2171.83,8.5 1089.17,8.5 6.5,8.5C 7.55841,6.95863 9.05841,5.95863 11,5.5C 13.8236,6.05394 16.657,6.55394 19.5,7C 1097.83,7.5 2176.17,7.66667 3254.5,7.5 Z"/></g>
<g><path style="opacity:0.956" fill="#17101c" d="M -0.5,8.5 C 0.833333,8.83333 2.16667,9.16667 3.5,9.5C 374.504,9.16605 730.171,9.49938 1070.5,10.5C 930.5,10.5 790.5,10.5 650.5,10.5C 433.5,10.5 216.5,10.5 -0.5,10.5C -0.5,9.83333 -0.5,9.16667 -0.5,8.5 Z"/></g>
<g><path style="opacity:1" fill="#231c2f" d="M -0.5,10.5 C 216.5,10.5 433.5,10.5 650.5,10.5C 653.457,11.5263 656.624,12.193 660,12.5C 669.406,12.0611 678.906,11.7277 688.5,11.5C 712.164,12.1234 735.831,12.6234 759.5,13C 756.635,13.1829 753.969,13.6829 751.5,14.5C 500.833,14.5 250.167,14.5 -0.5,14.5C -0.5,13.1667 -0.5,11.8333 -0.5,10.5 Z"/></g>
<g><path style="opacity:1" fill="#1f1727" d="M 650.5,10.5 C 790.5,10.5 930.5,10.5 1070.5,10.5C 972.334,11.333 874.001,11.833 775.5,12C 772.5,12.3333 769.5,12.6667 766.5,13C 767.056,13.3826 767.389,13.8826 767.5,14.5C 762.167,14.5 756.833,14.5 751.5,14.5C 753.969,13.6829 756.635,13.1829 759.5,13C 735.831,12.6234 712.164,12.1234 688.5,11.5C 678.906,11.7277 669.406,12.0611 660,12.5C 656.624,12.193 653.457,11.5263 650.5,10.5 Z"/></g>
<g><path style="opacity:1" fill="#272045" d="M 1231.5,10.5 C 1232.17,10.5 1232.83,10.5 1233.5,10.5C 1237.98,11.3255 1242.65,11.8255 1247.5,12C 1249.31,12.7568 1250.98,13.5902 1252.5,14.5C 1250.5,14.5 1248.5,14.5 1246.5,14.5C 1231.56,12.8371 1216.56,12.1704 1201.5,12.5C 1199.5,12.5 1197.5,12.5 1195.5,12.5C 1179.01,11.3384 1162.34,11.1717 1145.5,12C 1131.57,13.8116 1117.57,14.6449 1103.5,14.5C 1112.03,13.3826 1120.69,12.216 1129.5,11C 1163.5,10.5 1197.5,10.3333 1231.5,10.5 Z"/></g>
<g><path style="opacity:1" fill="#1e1929" d="M 1233.5,10.5 C 1377.17,10.3333 1520.83,10.5 1664.5,11C 1688.35,11.3297 1712.19,12.163 1736,13.5C 1762.54,13.4719 1789.2,12.8052 1816,11.5C 1826.29,11.565 1835.96,11.8984 1845,12.5C 1915.43,11.3596 1985.93,10.6929 2056.5,10.5C 2053.44,11.2014 2050.27,11.868 2047,12.5C 2031.41,12.1532 2015.58,11.8198 1999.5,11.5C 1999.5,12.5 1999.5,13.5 1999.5,14.5C 1928.5,14.3333 1857.5,14.5 1786.5,15C 1784.62,15.1981 1782.95,15.6981 1781.5,16.5C 1779.83,16.5 1778.17,16.5 1776.5,16.5C 1749.5,15.8333 1722.5,15.1667 1695.5,14.5C 1705.51,14.6665 1715.51,14.4998 1725.5,14C 1710.26,13.825 1695.09,13.325 1680,12.5C 1677.67,12.8333 1675.33,13.1667 1673,13.5C 1669.92,12.7117 1666.76,12.2117 1663.5,12C 1631.5,11.8333 1599.5,11.6667 1567.5,11.5C 1486.92,12.6711 1406.59,12.6711 1326.5,11.5C 1325.45,12.548 1324.45,13.548 1323.5,14.5C 1299.83,14.5 1276.17,14.5 1252.5,14.5C 1250.98,13.5902 1249.31,12.7568 1247.5,12C 1242.65,11.8255 1237.98,11.3255 1233.5,10.5 Z"/></g>
<g><path style="opacity:1" fill="#16131d" d="M 1231.5,10.5 C 1506.67,9.5002 1782,9.16687 2057.5,9.5C 2057.5,10.1667 2057.17,10.5 2056.5,10.5C 1985.93,10.6929 1915.43,11.3596 1845,12.5C 1835.96,11.8984 1826.29,11.565 1816,11.5C 1789.2,12.8052 1762.54,13.4719 1736,13.5C 1712.19,12.163 1688.35,11.3297 1664.5,11C 1520.83,10.5 1377.17,10.3333 1233.5,10.5C 1232.83,10.5 1232.17,10.5 1231.5,10.5 Z"/></g>
<g><path style="opacity:1" fill="#1c1422" d="M 2195.5,9.5 C 2548.5,9.5 2901.5,9.5 3254.5,9.5C 3254.5,9.83333 3254.5,10.1667 3254.5,10.5C 3116.17,10.5 2977.83,10.5 2839.5,10.5C 2639.5,10.9101 2439.5,11.4101 2239.5,12C 2236.95,12.0023 2234.95,12.8356 2233.5,14.5C 2227.11,11.8701 2220.45,11.2034 2213.5,12.5C 2207.83,12.0301 2202.16,11.5301 2196.5,11C 2195.94,10.6174 2195.61,10.1174 2195.5,9.5 Z"/></g>
<g><path style="opacity:1" fill="#221d2f" d="M 2839.5,10.5 C 2977.83,10.5 3116.17,10.5 3254.5,10.5C 3254.5,11.8333 3254.5,13.1667 3254.5,14.5C 3132.17,14.5 3009.83,14.5 2887.5,14.5C 2866.9,13.2323 2845.56,12.399 2823.5,12C 2829.02,11.8267 2834.35,11.3267 2839.5,10.5 Z"/></g>
<g><path style="opacity:1" fill="#221d30" d="M 1695.5,14.5 C 1571.5,14.5 1447.5,14.5 1323.5,14.5C 1324.45,13.548 1325.45,12.548 1326.5,11.5C 1406.59,12.6711 1486.92,12.6711 1567.5,11.5C 1599.5,11.6667 1631.5,11.8333 1663.5,12C 1666.76,12.2117 1669.92,12.7117 1673,13.5C 1675.33,13.1667 1677.67,12.8333 1680,12.5C 1695.09,13.325 1710.26,13.825 1725.5,14C 1715.51,14.4998 1705.51,14.6665 1695.5,14.5 Z"/></g>
<g><path style="opacity:1" fill="#373041" d="M 3.5,9.5 C 4.20895,8.59603 5.20895,8.26269 6.5,8.5C 1089.17,8.5 2171.83,8.5 3254.5,8.5C 3254.5,8.83333 3254.5,9.16667 3254.5,9.5C 2901.5,9.5 2548.5,9.5 2195.5,9.5C 2149.5,9.5 2103.5,9.5 2057.5,9.5C 1782,9.16687 1506.67,9.5002 1231.5,10.5C 1197.5,10.3333 1163.5,10.5 1129.5,11C 1120.69,12.216 1112.03,13.3826 1103.5,14.5C 1099.5,14.5 1095.5,14.5 1091.5,14.5C 983.5,14.5 875.5,14.5 767.5,14.5C 767.389,13.8826 767.056,13.3826 766.5,13C 769.5,12.6667 772.5,12.3333 775.5,12C 874.001,11.833 972.334,11.333 1070.5,10.5C 730.171,9.49938 374.504,9.16605 3.5,9.5 Z"/></g>
<g><path style="opacity:1" fill="#251f54" d="M 1195.5,12.5 C 1156.01,12.9242 1116.68,14.2576 1077.5,16.5C 1082.17,15.8333 1086.83,15.1667 1091.5,14.5C 1095.5,14.5 1099.5,14.5 1103.5,14.5C 1117.57,14.6449 1131.57,13.8116 1145.5,12C 1162.34,11.1717 1179.01,11.3384 1195.5,12.5 Z"/></g>
<g><path style="opacity:1" fill="#1f1b4f" d="M 1201.5,12.5 C 1216.56,12.1704 1231.56,12.8371 1246.5,14.5C 1260.17,15.1667 1273.83,15.8333 1287.5,16.5C 1282.5,16.5 1277.5,16.5 1272.5,16.5C 1260.17,16.5 1247.83,16.5 1235.5,16.5C 1228.17,16.5 1220.83,16.5 1213.5,16.5C 1210.36,15.6787 1207.03,15.1787 1203.5,15C 1204.83,14.6667 1206.17,14.3333 1207.5,14C 1205.29,13.8091 1203.29,13.3091 1201.5,12.5 Z"/></g>
<g><path style="opacity:1" fill="#241a30" d="M 2839.5,10.5 C 2834.35,11.3267 2829.02,11.8267 2823.5,12C 2845.56,12.399 2866.9,13.2323 2887.5,14.5C 2669.5,14.5 2451.5,14.5 2233.5,14.5C 2234.95,12.8356 2236.95,12.0023 2239.5,12C 2439.5,11.4101 2639.5,10.9101 2839.5,10.5 Z"/></g>
<g><path style="opacity:1" fill="#363576" d="M 1195.5,12.5 C 1197.5,12.5 1199.5,12.5 1201.5,12.5C 1203.29,13.3091 1205.29,13.8091 1207.5,14C 1206.17,14.3333 1204.83,14.6667 1203.5,15C 1207.03,15.1787 1210.36,15.6787 1213.5,16.5C 1212.17,16.5 1210.83,16.5 1209.5,16.5C 1190.83,16.5 1172.17,16.5 1153.5,16.5C 1141.99,16.1719 1130.65,16.5052 1119.5,17.5C 1026.83,17.5 934.167,17.5 841.5,17.5C 560.833,17.5 280.167,17.5 -0.5,17.5C -0.5,17.1667 -0.5,16.8333 -0.5,16.5C 358.833,16.5 718.167,16.5 1077.5,16.5C 1116.68,14.2576 1156.01,12.9242 1195.5,12.5 Z"/></g>
<g><path style="opacity:1" fill="#141234" d="M -0.5,14.5 C 250.167,14.5 500.833,14.5 751.5,14.5C 756.833,14.5 762.167,14.5 767.5,14.5C 875.5,14.5 983.5,14.5 1091.5,14.5C 1086.83,15.1667 1082.17,15.8333 1077.5,16.5C 718.167,16.5 358.833,16.5 -0.5,16.5C -0.5,15.8333 -0.5,15.1667 -0.5,14.5 Z"/></g>
<g><path style="opacity:1" fill="#160f2b" d="M 1246.5,14.5 C 1248.5,14.5 1250.5,14.5 1252.5,14.5C 1276.17,14.5 1299.83,14.5 1323.5,14.5C 1447.5,14.5 1571.5,14.5 1695.5,14.5C 1722.5,15.1667 1749.5,15.8333 1776.5,16.5C 1613.5,16.5 1450.5,16.5 1287.5,16.5C 1273.83,15.8333 1260.17,15.1667 1246.5,14.5 Z"/></g>
<g><path style="opacity:1" fill="#17122f" d="M 2057.5,9.5 C 2103.5,9.5 2149.5,9.5 2195.5,9.5C 2195.61,10.1174 2195.94,10.6174 2196.5,11C 2202.16,11.5301 2207.83,12.0301 2213.5,12.5C 2220.45,11.2034 2227.11,11.8701 2233.5,14.5C 2451.5,14.5 2669.5,14.5 2887.5,14.5C 3009.83,14.5 3132.17,14.5 3254.5,14.5C 3254.5,15.1667 3254.5,15.8333 3254.5,16.5C 2985.83,16.5 2717.17,16.5 2448.5,16.5C 2362.83,15.8333 2277.17,15.1667 2191.5,14.5C 2196.69,14.9415 2201.69,14.4415 2206.5,13C 2158.21,10.0005 2109.87,9.66712 2061.5,12C 2058.75,12.9428 2056.08,13.7761 2053.5,14.5C 2007.34,15.0268 1961.34,15.6935 1915.5,16.5C 1870.83,16.5 1826.17,16.5 1781.5,16.5C 1782.95,15.6981 1784.62,15.1981 1786.5,15C 1857.5,14.5 1928.5,14.3333 1999.5,14.5C 1999.5,13.5 1999.5,12.5 1999.5,11.5C 2015.58,11.8198 2031.41,12.1532 2047,12.5C 2050.27,11.868 2053.44,11.2014 2056.5,10.5C 2057.17,10.5 2057.5,10.1667 2057.5,9.5 Z"/></g>
<g><path style="opacity:1" fill="#211c53" d="M 2191.5,14.5 C 2277.17,15.1667 2362.83,15.8333 2448.5,16.5C 2351.17,16.5 2253.83,16.5 2156.5,16.5C 2155.41,14.8829 2153.74,14.0496 2151.5,14C 2129.5,13.3333 2107.5,13.3333 2085.5,14C 2091.5,14.3333 2097.5,14.6667 2103.5,15C 2091.99,15.1694 2080.66,15.6694 2069.5,16.5C 2056.83,16.5 2044.17,16.5 2031.5,16.5C 2031.17,16.5 2030.83,16.5 2030.5,16.5C 2038.17,15.8333 2045.83,15.1667 2053.5,14.5C 2095.78,11.7813 2138.12,10.9479 2180.5,12C 2184.39,12.4188 2188.06,13.2521 2191.5,14.5 Z"/></g>
<g><path style="opacity:1" fill="#2c2d6f" d="M 2156.5,16.5 C 2136.5,16.5 2116.5,16.5 2096.5,16.5C 2088.17,16.5 2079.83,16.5 2071.5,16.5C 2070.83,16.5 2070.17,16.5 2069.5,16.5C 2080.66,15.6694 2091.99,15.1694 2103.5,15C 2097.5,14.6667 2091.5,14.3333 2085.5,14C 2107.5,13.3333 2129.5,13.3333 2151.5,14C 2153.74,14.0496 2155.41,14.8829 2156.5,16.5 Z"/></g>
<g><path style="opacity:1" fill="#261f45" d="M 2191.5,14.5 C 2188.06,13.2521 2184.39,12.4188 2180.5,12C 2138.12,10.9479 2095.78,11.7813 2053.5,14.5C 2056.08,13.7761 2058.75,12.9428 2061.5,12C 2109.87,9.66712 2158.21,10.0005 2206.5,13C 2201.69,14.4415 2196.69,14.9415 2191.5,14.5 Z"/></g>
<g><path style="opacity:1" fill="#161238" d="M 2053.5,14.5 C 2045.83,15.1667 2038.17,15.8333 2030.5,16.5C 1992.17,16.5 1953.83,16.5 1915.5,16.5C 1961.34,15.6935 2007.34,15.0268 2053.5,14.5 Z"/></g>
<g><path style="opacity:1" fill="#5a55a1" d="M -0.5,17.5 C 280.167,17.5 560.833,17.5 841.5,17.5C 841.5,17.8333 841.5,18.1667 841.5,18.5C 840.833,18.5 840.167,18.5 839.5,18.5C 680.152,18.1752 520.819,18.5085 361.5,19.5C 290.167,19.5 218.833,19.5 147.5,19.5C 98.1667,19.5 48.8333,19.5 -0.5,19.5C -0.5,18.8333 -0.5,18.1667 -0.5,17.5 Z"/></g>
<g><path style="opacity:1" fill="#6865c5" d="M 841.5,18.5 C 841.5,18.1667 841.5,17.8333 841.5,17.5C 934.167,17.5 1026.83,17.5 1119.5,17.5C 1126.12,19.1441 1133.12,20.1441 1140.5,20.5C 1136.91,22.0009 1133.24,23.0009 1129.5,23.5C 1127.17,23.5 1124.83,23.5 1122.5,23.5C 1122.5,22.5 1122.5,21.5 1122.5,20.5C 1110.86,19.612 1099.19,19.2787 1087.5,19.5C 1079.83,19.5 1072.17,19.5 1064.5,19.5C 990.185,18.5154 915.852,18.182 841.5,18.5 Z"/></g>
<g><path style="opacity:1" fill="#7784d0" d="M 1153.5,16.5 C 1153.5,16.8333 1153.5,17.1667 1153.5,17.5C 1150.29,17.19 1147.29,17.5233 1144.5,18.5C 1148.3,19.6389 1152.3,20.4723 1156.5,21C 1151.71,21.9021 1147.04,22.7355 1142.5,23.5C 1141.5,23.5 1140.5,23.5 1139.5,23.5C 1136.17,23.5 1132.83,23.5 1129.5,23.5C 1133.24,23.0009 1136.91,22.0009 1140.5,20.5C 1133.12,20.1441 1126.12,19.1441 1119.5,17.5C 1130.65,16.5052 1141.99,16.1719 1153.5,16.5 Z"/></g>
<g><path style="opacity:1" fill="#5c559f" d="M 1235.5,17.5 C 1235.5,17.1667 1235.5,16.8333 1235.5,16.5C 1247.83,16.5 1260.17,16.5 1272.5,16.5C 1296.99,17.4977 1321.66,17.831 1346.5,17.5C 1346.5,17.8333 1346.5,18.1667 1346.5,18.5C 1348.55,21.8612 1351.55,24.1945 1355.5,25.5C 1358.47,27.8062 1361.14,30.4728 1363.5,33.5C 1362.83,33.5 1362.17,33.5 1361.5,33.5C 1360.5,32.8333 1359.5,32.1667 1358.5,31.5C 1357.42,29.4131 1355.75,28.0798 1353.5,27.5C 1353.05,26.5416 1352.38,25.7083 1351.5,25C 1348.04,23.5186 1344.71,21.852 1341.5,20C 1331.51,19.5002 1321.51,19.3335 1311.5,19.5C 1298.01,18.5043 1284.34,18.171 1270.5,18.5C 1259.01,17.5051 1247.35,17.1717 1235.5,17.5 Z"/></g>
<g><path style="opacity:1" fill="#61537d" d="M 1912.5,17.5 C 1912.5,17.8333 1912.5,18.1667 1912.5,18.5C 1901.65,18.1722 1890.99,18.5056 1880.5,19.5C 1718.9,18.6681 1557.24,18.1681 1395.5,18C 1567.83,17.5 1740.17,17.3333 1912.5,17.5 Z"/></g>
<g><path style="opacity:1" fill="#6967bb" d="M 2031.5,16.5 C 2044.17,16.5 2056.83,16.5 2069.5,16.5C 2070.17,16.5 2070.83,16.5 2071.5,16.5C 2077.16,17.5727 2082.82,18.5727 2088.5,19.5C 2072.34,18.4598 2056.34,18.4598 2040.5,19.5C 2028.83,19.5 2017.17,19.5 2005.5,19.5C 1998.11,19.7637 1990.78,19.4304 1983.5,18.5C 1983.5,18.1667 1983.5,17.8333 1983.5,17.5C 1999.68,17.8297 2015.68,17.4964 2031.5,16.5 Z"/></g>
<g><path style="opacity:1" fill="#6764c2" d="M 2177.5,17.5 C 2259.67,17.1674 2341.67,17.5007 2423.5,18.5C 2422.5,18.5 2421.5,18.5 2420.5,18.5C 2344.17,18.3333 2267.83,18.5 2191.5,19C 2185.13,19.3107 2178.79,19.9774 2172.5,21C 2173.42,21.2784 2174.08,21.7784 2174.5,22.5C 2169.5,22.5 2164.5,22.5 2159.5,22.5C 2159.5,21.5 2159.5,20.5 2159.5,19.5C 2165.75,19.8164 2171.75,19.1498 2177.5,17.5 Z"/></g>
<g><path style="opacity:1" fill="#504d90" d="M 2156.5,16.5 C 2253.83,16.5 2351.17,16.5 2448.5,16.5C 2717.17,16.5 2985.83,16.5 3254.5,16.5C 3254.5,17.1667 3254.5,17.8333 3254.5,18.5C 2977.5,18.5 2700.5,18.5 2423.5,18.5C 2341.67,17.5007 2259.67,17.1674 2177.5,17.5C 2170.83,17.5 2164.17,17.5 2157.5,17.5C 2156.83,17.5 2156.5,17.1667 2156.5,16.5 Z"/></g>
<g><path style="opacity:1" fill="#97b4e9" d="M 1144.5,18.5 C 1147.29,17.5233 1150.29,17.19 1153.5,17.5C 1169.5,17.3334 1185.5,17.5001 1201.5,18C 1182.52,19.8171 1163.52,19.9837 1144.5,18.5 Z"/></g>
<g><path style="opacity:1" fill="#7081d1" d="M 1209.5,16.5 C 1210.83,16.5 1212.17,16.5 1213.5,16.5C 1220.83,16.5 1228.17,16.5 1235.5,16.5C 1235.5,16.8333 1235.5,17.1667 1235.5,17.5C 1230.32,19.0193 1224.99,19.8526 1219.5,20C 1217.88,20.2355 1216.88,21.0689 1216.5,22.5C 1194.23,22.7035 1193.9,21.2035 1215.5,18C 1213.29,17.8091 1211.29,17.3091 1209.5,16.5 Z"/></g>
<g><path style="opacity:1" fill="#443760" d="M 1272.5,16.5 C 1277.5,16.5 1282.5,16.5 1287.5,16.5C 1450.5,16.5 1613.5,16.5 1776.5,16.5C 1778.17,16.5 1779.83,16.5 1781.5,16.5C 1826.17,16.5 1870.83,16.5 1915.5,16.5C 1953.83,16.5 1992.17,16.5 2030.5,16.5C 2030.83,16.5 2031.17,16.5 2031.5,16.5C 2015.68,17.4964 1999.68,17.8297 1983.5,17.5C 1959.83,17.5 1936.17,17.5 1912.5,17.5C 1740.17,17.3333 1567.83,17.5 1395.5,18C 1557.24,18.1681 1718.9,18.6681 1880.5,19.5C 1880.17,20.1667 1879.83,20.8333 1879.5,21.5C 1878.66,21.8417 1878.33,22.5084 1878.5,23.5C 1870.95,32.5485 1862.28,40.3818 1852.5,47C 1863.49,47.4998 1874.49,47.6665 1885.5,47.5C 1885.5,48.1667 1885.17,48.5 1884.5,48.5C 1870,48.8814 1855.66,49.548 1841.5,50.5C 1716.5,50.5 1591.5,50.5 1466.5,50.5C 1466.83,49.8333 1467.17,49.1667 1467.5,48.5C 1592.5,48.6667 1717.5,48.5 1842.5,48C 1843.06,47.6174 1843.39,47.1174 1843.5,46.5C 1845.31,46.5086 1846.98,46.0086 1848.5,45C 1852.83,41.379 1857.16,37.7124 1861.5,34C 1865.12,34.3794 1867.29,32.8794 1868,29.5C 1870.91,28.5497 1872.08,26.5497 1871.5,23.5C 1873.26,23.1231 1874.92,22.4565 1876.5,21.5C 1877.83,20.8333 1877.83,20.1667 1876.5,19.5C 1712.25,19.5072 1547.91,19.5072 1383.5,19.5C 1383.39,18.8826 1383.06,18.3826 1382.5,18C 1370.5,17.5001 1358.5,17.3335 1346.5,17.5C 1321.66,17.831 1296.99,17.4977 1272.5,16.5 Z"/></g>
<g><path style="opacity:1" fill="#60549e" d="M 1912.5,18.5 C 1912.5,18.1667 1912.5,17.8333 1912.5,17.5C 1936.17,17.5 1959.83,17.5 1983.5,17.5C 1983.5,17.8333 1983.5,18.1667 1983.5,18.5C 1961.99,18.5056 1940.65,19.1723 1919.5,20.5C 1914.85,22.2693 1910.52,24.6027 1906.5,27.5C 1905.83,27.5 1905.17,27.5 1904.5,27.5C 1907.47,24.5457 1910.8,21.879 1914.5,19.5C 1914.04,18.7025 1913.38,18.3691 1912.5,18.5 Z"/></g>
<g><path style="opacity:1" fill="#91aae0" d="M 2096.5,16.5 C 2116.5,16.5 2136.5,16.5 2156.5,16.5C 2156.5,17.1667 2156.83,17.5 2157.5,17.5C 2156.39,18.29 2155.06,18.79 2153.5,19C 2138.84,19.4999 2124.17,19.6666 2109.5,19.5C 2104.68,20.0074 2100.35,19.0074 2096.5,16.5 Z"/></g>
<g><path style="opacity:1" fill="#5a53bf" d="M 2420.5,18.5 C 2420.5,18.8333 2420.5,19.1667 2420.5,19.5C 2420.17,19.5 2419.83,19.5 2419.5,19.5C 2347.83,19.5 2276.17,19.5 2204.5,19.5C 2196.63,19.2926 2188.96,20.1259 2181.5,22C 2190.47,23.1059 2199.47,23.6059 2208.5,23.5C 2210.5,23.5 2212.5,23.5 2214.5,23.5C 2207.02,24.492 2199.35,24.8254 2191.5,24.5C 2185.77,23.9963 2180.1,23.3296 2174.5,22.5C 2174.08,21.7784 2173.42,21.2784 2172.5,21C 2178.79,19.9774 2185.13,19.3107 2191.5,19C 2267.83,18.5 2344.17,18.3333 2420.5,18.5 Z"/></g>
<g><path style="opacity:1" fill="#4a4398" d="M 839.5,18.5 C 821.007,19.4969 802.341,19.8302 783.5,19.5C 754.167,19.5 724.833,19.5 695.5,19.5C 634.167,19.5 572.833,19.5 511.5,19.5C 511.5,20.5 511.5,21.5 511.5,22.5C 507.833,22.5 504.167,22.5 500.5,22.5C 480.934,21.9176 461.267,20.9176 441.5,19.5C 414.669,20.7089 388.003,20.7089 361.5,19.5C 520.819,18.5085 680.152,18.1752 839.5,18.5 Z"/></g>
<g><path style="opacity:1" fill="#41358a" d="M 695.5,19.5 C 724.833,19.5 754.167,19.5 783.5,19.5C 798.661,20.3314 813.995,20.8314 829.5,21C 830.416,21.2784 831.082,21.7784 831.5,22.5C 829.901,22.2322 828.568,22.5655 827.5,23.5C 786.833,23.5 746.167,23.5 705.5,23.5C 705.5,22.8333 705.167,22.5 704.5,22.5C 701.535,21.3745 698.535,20.3745 695.5,19.5 Z"/></g>
<g><path style="opacity:1" fill="#7c95d1" d="M 1153.5,17.5 C 1153.5,17.1667 1153.5,16.8333 1153.5,16.5C 1172.17,16.5 1190.83,16.5 1209.5,16.5C 1211.29,17.3091 1213.29,17.8091 1215.5,18C 1193.9,21.2035 1194.23,22.7035 1216.5,22.5C 1219.96,23.4816 1223.63,23.815 1227.5,23.5C 1228.83,23.5 1230.17,23.5 1231.5,23.5C 1234.17,24.1667 1236.83,24.8333 1239.5,25.5C 1232.83,25.5 1226.17,25.5 1219.5,25.5C 1218.39,24.71 1217.06,24.21 1215.5,24C 1191.17,23.5 1166.84,23.3334 1142.5,23.5C 1147.04,22.7355 1151.71,21.9021 1156.5,21C 1152.3,20.4723 1148.3,19.6389 1144.5,18.5C 1163.52,19.9837 1182.52,19.8171 1201.5,18C 1185.5,17.5001 1169.5,17.3334 1153.5,17.5 Z"/></g>
<g><path style="opacity:1" fill="#4c4ac2" d="M 1261.5,18.5 C 1264.64,19.3213 1267.97,19.8213 1271.5,20C 1269.08,21.2107 1266.75,22.3774 1264.5,23.5C 1253.5,23.5 1242.5,23.5 1231.5,23.5C 1230.17,23.5 1228.83,23.5 1227.5,23.5C 1226.28,22.8386 1224.95,22.1719 1223.5,21.5C 1236.08,19.5884 1248.75,18.5884 1261.5,18.5 Z"/></g>
<g><path style="opacity:1" fill="#342447" d="M 1383.5,19.5 C 1547.91,19.5072 1712.25,19.5072 1876.5,19.5C 1877.83,20.1667 1877.83,20.8333 1876.5,21.5C 1874.92,22.4565 1873.26,23.1231 1871.5,23.5C 1871.5,23.1667 1871.5,22.8333 1871.5,22.5C 1846.69,22.0072 1821.69,21.3405 1796.5,20.5C 1705.54,20.4383 1614.54,20.605 1523.5,21C 1501.32,21.2269 1479.16,21.7269 1457,22.5C 1433.18,21.5558 1409.35,21.2224 1385.5,21.5C 1384.5,21.1667 1383.83,20.5 1383.5,19.5 Z"/></g>
<g><path style="opacity:1" fill="#7386cd" d="M 2071.5,16.5 C 2079.83,16.5 2088.17,16.5 2096.5,16.5C 2100.35,19.0074 2104.68,20.0074 2109.5,19.5C 2108.02,21.0737 2106.35,22.407 2104.5,23.5C 2092.48,23.3008 2080.48,23.6341 2068.5,24.5C 2066.59,24.7845 2064.92,24.4511 2063.5,23.5C 2063.83,23.5 2064.17,23.5 2064.5,23.5C 2072.89,23.1391 2081.22,22.3058 2089.5,21C 2088.94,20.6174 2088.61,20.1174 2088.5,19.5C 2082.82,18.5727 2077.16,17.5727 2071.5,16.5 Z"/></g>
<g><path style="opacity:1" fill="#4339a2" d="M 2204.5,19.5 C 2276.17,19.5 2347.83,19.5 2419.5,19.5C 2417.98,20.4098 2416.31,21.2432 2414.5,22C 2403.99,22.1697 2393.66,22.6697 2383.5,23.5C 2327.17,23.5 2270.83,23.5 2214.5,23.5C 2212.5,23.5 2210.5,23.5 2208.5,23.5C 2207.43,22.5655 2206.1,22.2322 2204.5,22.5C 2204.5,21.5 2204.5,20.5 2204.5,19.5 Z"/></g>
<g><path style="opacity:1" fill="#4a4292" d="M 2420.5,19.5 C 2420.5,19.1667 2420.5,18.8333 2420.5,18.5C 2421.5,18.5 2422.5,18.5 2423.5,18.5C 2700.5,18.5 2977.5,18.5 3254.5,18.5C 3254.5,19.1667 3254.5,19.8333 3254.5,20.5C 3224.04,20.7852 3193.87,20.7852 3164,20.5C 3157.73,20.8677 3151.56,21.701 3145.5,23C 3162.34,23.1685 3179.01,23.6685 3195.5,24.5C 3012,22.6104 2828.67,22.2771 2645.5,23.5C 2568.83,23.5 2492.17,23.5 2415.5,23.5C 2467.67,22.6672 2520,22.1672 2572.5,22C 2592.1,20.7028 2611.77,20.0362 2631.5,20C 2561.17,19.5 2490.83,19.3333 2420.5,19.5 Z"/></g>
<g><path style="opacity:1" fill="#45368e" d="M -0.5,19.5 C 48.8333,19.5 98.1667,19.5 147.5,19.5C 146.391,20.29 145.058,20.79 143.5,21C 149.167,21.3333 154.833,21.6667 160.5,22C 153.321,22.1715 146.321,22.6715 139.5,23.5C 92.7959,24.024 46.1292,24.6906 -0.5,25.5C -0.5,23.5 -0.5,21.5 -0.5,19.5 Z"/></g>
<g><path style="opacity:1" fill="#484290" d="M 147.5,19.5 C 218.833,19.5 290.167,19.5 361.5,19.5C 388.003,20.7089 414.669,20.7089 441.5,19.5C 461.267,20.9176 480.934,21.9176 500.5,22.5C 380.162,22.212 259.829,22.5454 139.5,23.5C 146.321,22.6715 153.321,22.1715 160.5,22C 154.833,21.6667 149.167,21.3333 143.5,21C 145.058,20.79 146.391,20.29 147.5,19.5 Z"/></g>
<g><path style="opacity:1" fill="#413887" d="M 695.5,19.5 C 698.535,20.3745 701.535,21.3745 704.5,22.5C 640.167,22.5 575.833,22.5 511.5,22.5C 511.5,21.5 511.5,20.5 511.5,19.5C 572.833,19.5 634.167,19.5 695.5,19.5 Z"/></g>
<g><path style="opacity:1" fill="#646dce" d="M 1235.5,17.5 C 1247.35,17.1717 1259.01,17.5051 1270.5,18.5C 1267.5,18.5 1264.5,18.5 1261.5,18.5C 1248.75,18.5884 1236.08,19.5884 1223.5,21.5C 1224.95,22.1719 1226.28,22.8386 1227.5,23.5C 1223.63,23.815 1219.96,23.4816 1216.5,22.5C 1216.88,21.0689 1217.88,20.2355 1219.5,20C 1224.99,19.8526 1230.32,19.0193 1235.5,17.5 Z"/></g>
<g><path style="opacity:1" fill="#433b8f" d="M 1261.5,18.5 C 1264.5,18.5 1267.5,18.5 1270.5,18.5C 1284.34,18.171 1298.01,18.5043 1311.5,19.5C 1300.99,21.6433 1290.33,22.9766 1279.5,23.5C 1274.5,23.5 1269.5,23.5 1264.5,23.5C 1266.75,22.3774 1269.08,21.2107 1271.5,20C 1267.97,19.8213 1264.64,19.3213 1261.5,18.5 Z"/></g>
<g><path style="opacity:1" fill="#4f478c" d="M 1311.5,19.5 C 1315.04,21.2684 1319.04,22.1018 1323.5,22C 1326.29,25.0263 1329.62,27.193 1333.5,28.5C 1333.17,29.1667 1332.83,29.8333 1332.5,30.5C 1329.5,29.1667 1326.5,27.8333 1323.5,26.5C 1323.5,26.1667 1323.5,25.8333 1323.5,25.5C 1322.74,24.7321 1321.74,24.2321 1320.5,24C 1306.84,23.5001 1293.17,23.3334 1279.5,23.5C 1290.33,22.9766 1300.99,21.6433 1311.5,19.5 Z"/></g>
<g><path style="opacity:1" fill="#32255b" d="M 1346.5,18.5 C 1349.52,18.7038 1352.52,19.0371 1355.5,19.5C 1355.5,21.5 1355.5,23.5 1355.5,25.5C 1351.55,24.1945 1348.55,21.8612 1346.5,18.5 Z"/></g>
<g><path style="opacity:1" fill="#3d3280" d="M 1983.5,18.5 C 1990.78,19.4304 1998.11,19.7637 2005.5,19.5C 2003.3,21.1002 2000.96,22.4335 1998.5,23.5C 1978.99,23.1697 1959.66,23.503 1940.5,24.5C 1937.48,24.3354 1934.48,24.502 1931.5,25C 1930.92,26.417 1929.92,27.2504 1928.5,27.5C 1928.34,26.1266 1928.51,24.7932 1929,23.5C 1930.96,23.7845 1933.12,23.7845 1935.5,23.5C 1935.5,22.5 1935.5,21.5 1935.5,20.5C 1930.17,20.5 1924.83,20.5 1919.5,20.5C 1940.65,19.1723 1961.99,18.5056 1983.5,18.5 Z"/></g>
<g><path style="opacity:1" fill="#41389e" d="M 2005.5,19.5 C 2017.17,19.5 2028.83,19.5 2040.5,19.5C 2041.83,19.5 2043.17,19.5 2044.5,19.5C 2039.92,20.4273 2035.59,21.7607 2031.5,23.5C 2020.5,23.5 2009.5,23.5 1998.5,23.5C 2000.96,22.4335 2003.3,21.1002 2005.5,19.5 Z"/></g>
<g><path style="opacity:1" fill="#4f48c2" d="M 2044.5,19.5 C 2053.84,19.3335 2063.17,19.5002 2072.5,20C 2073.17,20.3333 2073.83,20.6667 2074.5,21C 2071.01,21.738 2067.68,22.5713 2064.5,23.5C 2064.17,23.5 2063.83,23.5 2063.5,23.5C 2052.83,23.5 2042.17,23.5 2031.5,23.5C 2035.59,21.7607 2039.92,20.4273 2044.5,19.5 Z"/></g>
<g><path style="opacity:1" fill="#778fcd" d="M 2157.5,17.5 C 2164.17,17.5 2170.83,17.5 2177.5,17.5C 2171.75,19.1498 2165.75,19.8164 2159.5,19.5C 2159.5,20.5 2159.5,21.5 2159.5,22.5C 2164.5,22.5 2169.5,22.5 2174.5,22.5C 2180.1,23.3296 2185.77,23.9963 2191.5,24.5C 2191.5,24.8333 2191.5,25.1667 2191.5,25.5C 2182.83,25.5 2174.17,25.5 2165.5,25.5C 2145.53,23.5117 2125.19,22.8451 2104.5,23.5C 2106.35,22.407 2108.02,21.0737 2109.5,19.5C 2124.17,19.6666 2138.84,19.4999 2153.5,19C 2155.06,18.79 2156.39,18.29 2157.5,17.5 Z"/></g>
<g><path style="opacity:1" fill="#4a46c8" d="M 2204.5,19.5 C 2204.5,20.5 2204.5,21.5 2204.5,22.5C 2206.1,22.2322 2207.43,22.5655 2208.5,23.5C 2199.47,23.6059 2190.47,23.1059 2181.5,22C 2188.96,20.1259 2196.63,19.2926 2204.5,19.5 Z"/></g>
<g><path style="opacity:1" fill="#3e338a" d="M 2419.5,19.5 C 2419.83,19.5 2420.17,19.5 2420.5,19.5C 2490.83,19.3333 2561.17,19.5 2631.5,20C 2611.77,20.0362 2592.1,20.7028 2572.5,22C 2520,22.1672 2467.67,22.6672 2415.5,23.5C 2404.83,23.5 2394.17,23.5 2383.5,23.5C 2393.66,22.6697 2403.99,22.1697 2414.5,22C 2416.31,21.2432 2417.98,20.4098 2419.5,19.5 Z"/></g>
<g><path style="opacity:1" fill="#443ba5" d="M 839.5,18.5 C 840.167,18.5 840.833,18.5 841.5,18.5C 915.852,18.182 990.185,18.5154 1064.5,19.5C 1063.28,20.1614 1061.95,20.8281 1060.5,21.5C 984.17,22.5 907.836,22.8333 831.5,22.5C 831.082,21.7784 830.416,21.2784 829.5,21C 813.995,20.8314 798.661,20.3314 783.5,19.5C 802.341,19.8302 821.007,19.4969 839.5,18.5 Z"/></g>
<g><path style="opacity:1" fill="#493c95" d="M 1311.5,19.5 C 1321.51,19.3335 1331.51,19.5002 1341.5,20C 1344.71,21.852 1348.04,23.5186 1351.5,25C 1352.38,25.7083 1353.05,26.5416 1353.5,27.5C 1346.91,26.2703 1340.58,24.2703 1334.5,21.5C 1333,21.4528 1332,22.1195 1331.5,23.5C 1333.78,26 1336.11,28.3334 1338.5,30.5C 1336.83,29.8333 1335.17,29.1667 1333.5,28.5C 1329.62,27.193 1326.29,25.0263 1323.5,22C 1319.04,22.1018 1315.04,21.2684 1311.5,19.5 Z"/></g>
<g><path style="opacity:1" fill="#2d1e39" d="M 1871.5,22.5 C 1869.88,23.038 1868.22,23.3713 1866.5,23.5C 1713.5,23.5 1560.5,23.5 1407.5,23.5C 1407.17,23.5 1406.83,23.5 1406.5,23.5C 1401.69,22.5128 1396.69,22.1795 1391.5,22.5C 1391.66,23.8734 1391.49,25.2068 1391,26.5C 1389.85,24.1811 1388.02,22.8477 1385.5,22.5C 1385.5,22.1667 1385.5,21.8333 1385.5,21.5C 1409.35,21.2224 1433.18,21.5558 1457,22.5C 1479.16,21.7269 1501.32,21.2269 1523.5,21C 1614.54,20.605 1705.54,20.4383 1796.5,20.5C 1821.69,21.3405 1846.69,22.0072 1871.5,22.5 Z"/></g>
<g><path style="opacity:1" fill="#24192e" d="M 1880.5,19.5 C 1889.58,19.0863 1898.58,19.5863 1907.5,21C 1904.07,23.4264 1900.9,26.2597 1898,29.5C 1897.6,29.2716 1897.43,28.9382 1897.5,28.5C 1897.83,27.8333 1898.17,27.1667 1898.5,26.5C 1899.34,26.1583 1899.67,25.4916 1899.5,24.5C 1899.41,23.5041 1899.75,22.6708 1900.5,22C 1893.51,21.5004 1886.51,21.3337 1879.5,21.5C 1879.83,20.8333 1880.17,20.1667 1880.5,19.5 Z"/></g>
<g><path style="opacity:1" fill="#6466cf" d="M 2040.5,19.5 C 2056.34,18.4598 2072.34,18.4598 2088.5,19.5C 2088.61,20.1174 2088.94,20.6174 2089.5,21C 2081.22,22.3058 2072.89,23.1391 2064.5,23.5C 2067.68,22.5713 2071.01,21.738 2074.5,21C 2073.83,20.6667 2073.17,20.3333 2072.5,20C 2063.17,19.5002 2053.84,19.3335 2044.5,19.5C 2043.17,19.5 2041.83,19.5 2040.5,19.5 Z"/></g>
<g><path style="opacity:1" fill="#474274" d="M 500.5,22.5 C 504.167,22.5 507.833,22.5 511.5,22.5C 575.833,22.5 640.167,22.5 704.5,22.5C 705.167,22.5 705.5,22.8333 705.5,23.5C 528.833,23.3333 352.166,23.5 175.5,24C 213.833,24.3333 252.167,24.6667 290.5,25C 566.833,25.5 843.166,25.6667 1119.5,25.5C 1122.83,25.5 1126.17,25.5 1129.5,25.5C 1159.5,25.5 1189.5,25.5 1219.5,25.5C 1226.17,25.5 1232.83,25.5 1239.5,25.5C 1267.5,25.5 1295.5,25.5 1323.5,25.5C 1323.5,25.8333 1323.5,26.1667 1323.5,26.5C 1290.83,26.5 1258.17,26.5 1225.5,26.5C 816.833,26.5 408.167,26.5 -0.5,26.5C -0.5,26.1667 -0.5,25.8333 -0.5,25.5C 46.1292,24.6906 92.7959,24.024 139.5,23.5C 259.829,22.5454 380.162,22.212 500.5,22.5 Z"/></g>
<g><path style="opacity:1" fill="#473fa0" d="M 1064.5,19.5 C 1072.17,19.5 1079.83,19.5 1087.5,19.5C 1083.98,20.3712 1080.31,21.2045 1076.5,22C 1077.74,22.2321 1078.74,22.7321 1079.5,23.5C 995.5,23.5 911.5,23.5 827.5,23.5C 828.568,22.5655 829.901,22.2322 831.5,22.5C 907.836,22.8333 984.17,22.5 1060.5,21.5C 1061.95,20.8281 1063.28,20.1614 1064.5,19.5 Z"/></g>
<g><path style="opacity:1" fill="#4c45ba" d="M 1087.5,19.5 C 1099.19,19.2787 1110.86,19.612 1122.5,20.5C 1122.5,21.5 1122.5,22.5 1122.5,23.5C 1121.5,23.5 1120.5,23.5 1119.5,23.5C 1106.17,23.5 1092.83,23.5 1079.5,23.5C 1078.74,22.7321 1077.74,22.2321 1076.5,22C 1080.31,21.2045 1083.98,20.3712 1087.5,19.5 Z"/></g>
<g><path style="opacity:1" fill="#4c359a" d="M 1919.5,20.5 C 1924.83,20.5 1930.17,20.5 1935.5,20.5C 1935.5,21.5 1935.5,22.5 1935.5,23.5C 1933.12,23.7845 1930.96,23.7845 1929,23.5C 1928.51,24.7932 1928.34,26.1266 1928.5,27.5C 1925.12,29.5184 1921.79,31.5184 1918.5,33.5C 1918.43,31.5992 1918.77,29.7659 1919.5,28C 1919.33,26.5 1918.5,25.6667 1917,25.5C 1912.48,28.0064 1907.98,30.3398 1903.5,32.5C 1904.75,30.9991 1905.75,29.3325 1906.5,27.5C 1910.52,24.6027 1914.85,22.2693 1919.5,20.5 Z"/></g>
<g><path style="opacity:1" fill="#554b92" d="M 2645.5,23.5 C 2828.67,22.2771 3012,22.6104 3195.5,24.5C 3215.17,24.5 3234.83,24.5 3254.5,24.5C 3254.5,24.8333 3254.5,25.1667 3254.5,25.5C 3209.5,25.5 3164.5,25.5 3119.5,25.5C 2961.67,23.803 2803.67,23.1363 2645.5,23.5 Z"/></g>
<g><path style="opacity:1" fill="#6c64a2" d="M 705.5,23.5 C 746.167,23.5 786.833,23.5 827.5,23.5C 911.5,23.5 995.5,23.5 1079.5,23.5C 1092.83,23.5 1106.17,23.5 1119.5,23.5C 1119.5,24.1667 1119.5,24.8333 1119.5,25.5C 843.166,25.6667 566.833,25.5 290.5,25C 252.167,24.6667 213.833,24.3333 175.5,24C 352.166,23.5 528.833,23.3333 705.5,23.5 Z"/></g>
<g><path style="opacity:1" fill="#a5abde" d="M 1119.5,23.5 C 1120.5,23.5 1121.5,23.5 1122.5,23.5C 1124.83,23.5 1127.17,23.5 1129.5,23.5C 1132.83,23.5 1136.17,23.5 1139.5,23.5C 1136.17,24.1667 1132.83,24.8333 1129.5,25.5C 1126.17,25.5 1122.83,25.5 1119.5,25.5C 1119.5,24.8333 1119.5,24.1667 1119.5,23.5 Z"/></g>
<g><path style="opacity:1" fill="#3f334d" d="M 1407.5,23.5 C 1560.5,23.5 1713.5,23.5 1866.5,23.5C 1860.83,24.1667 1855.17,24.8333 1849.5,25.5C 1702.02,24.8394 1554.69,24.1727 1407.5,23.5 Z"/></g>
<g><path style="opacity:1" fill="#382d57" d="M 1880.5,19.5 C 1890.99,18.5056 1901.65,18.1722 1912.5,18.5C 1913.38,18.3691 1914.04,18.7025 1914.5,19.5C 1910.8,21.879 1907.47,24.5457 1904.5,27.5C 1899.46,30.2381 1895.8,34.2381 1893.5,39.5C 1892.5,40.1667 1891.5,40.8333 1890.5,41.5C 1889.6,40.791 1889.26,39.791 1889.5,38.5C 1892.14,35.1856 1894.81,31.8523 1897.5,28.5C 1897.43,28.9382 1897.6,29.2716 1898,29.5C 1900.9,26.2597 1904.07,23.4264 1907.5,21C 1898.58,19.5863 1889.58,19.0863 1880.5,19.5 Z"/></g>
<g><path style="opacity:1" fill="#433290" d="M 3254.5,20.5 C 3254.5,21.8333 3254.5,23.1667 3254.5,24.5C 3234.83,24.5 3215.17,24.5 3195.5,24.5C 3179.01,23.6685 3162.34,23.1685 3145.5,23C 3151.56,21.701 3157.73,20.8677 3164,20.5C 3193.87,20.7852 3224.04,20.7852 3254.5,20.5 Z"/></g>
<g><path style="opacity:1" fill="#b6d2e3" d="M 1139.5,23.5 C 1140.5,23.5 1141.5,23.5 1142.5,23.5C 1166.84,23.3334 1191.17,23.5 1215.5,24C 1217.06,24.21 1218.39,24.71 1219.5,25.5C 1189.5,25.5 1159.5,25.5 1129.5,25.5C 1132.83,24.8333 1136.17,24.1667 1139.5,23.5 Z"/></g>
<g><path style="opacity:0.976" fill="#6e66a7" d="M 1231.5,23.5 C 1242.5,23.5 1253.5,23.5 1264.5,23.5C 1269.5,23.5 1274.5,23.5 1279.5,23.5C 1293.17,23.3334 1306.84,23.5001 1320.5,24C 1321.74,24.2321 1322.74,24.7321 1323.5,25.5C 1295.5,25.5 1267.5,25.5 1239.5,25.5C 1236.83,24.8333 1234.17,24.1667 1231.5,23.5 Z"/></g>
<g><path style="opacity:0.986" fill="#484056" d="M 1406.5,23.5 C 1406.83,23.5 1407.17,23.5 1407.5,23.5C 1554.69,24.1727 1702.02,24.8394 1849.5,25.5C 1850.79,25.2627 1851.79,25.596 1852.5,26.5C 1703,26.833 1553.67,26.4996 1404.5,25.5C 1404.5,24.1667 1405.17,23.5 1406.5,23.5 Z"/></g>
<g><path style="opacity:0.439" fill="#b1adb2" d="M 1884.5,25.5 C 1889.31,24.5128 1894.31,24.1795 1899.5,24.5C 1899.67,25.4916 1899.34,26.1583 1898.5,26.5C 1894.03,25.5139 1889.36,25.1805 1884.5,25.5 Z"/></g>
<g><path style="opacity:0.991" fill="#42386e" d="M 1940.5,24.5 C 1957.34,24.1702 1974.01,24.5035 1990.5,25.5C 1971.16,25.3334 1951.83,25.5 1932.5,26C 1931.94,26.3826 1931.61,26.8826 1931.5,27.5C 1926.73,30.0565 1922.06,32.8898 1917.5,36C 1910.58,42.0867 1904.58,48.92 1899.5,56.5C 1899.5,55.8333 1899.17,55.5 1898.5,55.5C 1899.6,54.3951 1900.27,53.0618 1900.5,51.5C 1905.15,46.517 1909.82,41.517 1914.5,36.5C 1915.26,34.7376 1916.6,33.7376 1918.5,33.5C 1921.79,31.5184 1925.12,29.5184 1928.5,27.5C 1929.92,27.2504 1930.92,26.417 1931.5,25C 1934.48,24.502 1937.48,24.3354 1940.5,24.5 Z"/></g>
<g><path style="opacity:0.99" fill="#564b91" d="M 1940.5,24.5 C 1959.66,23.503 1978.99,23.1697 1998.5,23.5C 2009.5,23.5 2020.5,23.5 2031.5,23.5C 2042.17,23.5 2052.83,23.5 2063.5,23.5C 2064.92,24.4511 2066.59,24.7845 2068.5,24.5C 2068.5,24.8333 2068.5,25.1667 2068.5,25.5C 2042.5,25.5 2016.5,25.5 1990.5,25.5C 1974.01,24.5035 1957.34,24.1702 1940.5,24.5 Z"/></g>
<g><path style="opacity:1" fill="#9caebd" d="M 2104.5,23.5 C 2125.19,22.8451 2145.53,23.5117 2165.5,25.5C 2133.17,25.5 2100.83,25.5 2068.5,25.5C 2068.5,25.1667 2068.5,24.8333 2068.5,24.5C 2080.48,23.6341 2092.48,23.3008 2104.5,23.5 Z"/></g>
<g><path style="opacity:0.973" fill="#746ca8" d="M 2214.5,23.5 C 2270.83,23.5 2327.17,23.5 2383.5,23.5C 2394.17,23.5 2404.83,23.5 2415.5,23.5C 2492.17,23.5 2568.83,23.5 2645.5,23.5C 2803.67,23.1363 2961.67,23.803 3119.5,25.5C 2810.17,25.5 2500.83,25.5 2191.5,25.5C 2191.5,25.1667 2191.5,24.8333 2191.5,24.5C 2199.35,24.8254 2207.02,24.492 2214.5,23.5 Z"/></g>
<g><path style="opacity:0.795" fill="#2c2646" d="M 1990.5,25.5 C 2016.5,25.5 2042.5,25.5 2068.5,25.5C 2100.83,25.5 2133.17,25.5 2165.5,25.5C 2174.17,25.5 2182.83,25.5 2191.5,25.5C 2500.83,25.5 2810.17,25.5 3119.5,25.5C 3164.5,25.5 3209.5,25.5 3254.5,25.5C 3254.5,25.8333 3254.5,26.1667 3254.5,26.5C 2813.48,26.1692 2372.48,26.5025 1931.5,27.5C 1931.61,26.8826 1931.94,26.3826 1932.5,26C 1951.83,25.5 1971.16,25.3334 1990.5,25.5 Z"/></g>
<g><path style="opacity:0.018" fill="#f2f1f4" d="M 1404.5,25.5 C 1553.67,26.4996 1703,26.833 1852.5,26.5C 1857.45,25.4409 1862.45,25.2742 1867.5,26C 1862.84,30.2893 1858.17,34.6226 1853.5,39C 1849.96,41.7673 1845.96,43.434 1841.5,44C 1700.83,44.5 1560.17,44.6667 1419.5,44.5C 1411.37,40.2311 1403.87,34.8978 1397,28.5C 1396.52,27.552 1396.35,26.552 1396.5,25.5C 1399.17,25.5 1401.83,25.5 1404.5,25.5 Z M 1849.5,27.5 C 1857.43,27.8532 1858.93,30.8532 1854,36.5C 1850.98,35.6689 1849.48,37.0022 1849.5,40.5C 1846.02,39.5271 1842.69,40.1937 1839.5,42.5C 1699.95,42.4978 1560.45,42.4978 1421,42.5C 1415.29,40.372 1409.79,37.2053 1404.5,33C 1405.22,31.3476 1405.55,29.8476 1405.5,28.5C 1406.19,29.0253 1406.69,29.6919 1407,30.5C 1554.46,28.8349 1701.96,27.8349 1849.5,27.5 Z"/></g>
<g><path style="opacity:0.015" fill="#fbfbfe" d="M -0.5,26.5 C 408.167,26.5 816.833,26.5 1225.5,26.5C 1258.17,27.1667 1290.83,27.8333 1323.5,28.5C 882.167,28.5 440.833,28.5 -0.5,28.5C -0.5,27.8333 -0.5,27.1667 -0.5,26.5 Z"/></g>
<g><path style="opacity:0.016" fill="#fafafd" d="M 3254.5,26.5 C 3254.5,26.8333 3254.5,27.1667 3254.5,27.5C 2815.2,27.833 2376.03,28.833 1937,30.5C 1936,29.8333 1935,29.1667 1934,28.5C 1921.47,35.1519 1910.8,44.1519 1902,55.5C 1900.04,60.1472 1898.04,64.8138 1896,69.5C 1894.94,70.0968 1893.77,70.4302 1892.5,70.5C 1884.41,67.6183 1876.08,65.785 1867.5,65C 1708.5,64.5 1549.5,64.3333 1390.5,64.5C 1549.33,63.5004 1708.33,63.167 1867.5,63.5C 1868.83,63.5 1870.17,63.5 1871.5,63.5C 1875.27,64.7947 1879.27,65.4613 1883.5,65.5C 1886.69,67.8743 1890.35,68.8743 1894.5,68.5C 1895.63,64.251 1897.29,60.251 1899.5,56.5C 1904.58,48.92 1910.58,42.0867 1917.5,36C 1922.06,32.8898 1926.73,30.0565 1931.5,27.5C 2372.48,26.5025 2813.48,26.1692 3254.5,26.5 Z"/></g>
<g><path style="opacity:0.026" fill="#f0eff0" d="M 1884.5,25.5 C 1889.36,25.1805 1894.03,25.5139 1898.5,26.5C 1898.17,27.1667 1897.83,27.8333 1897.5,28.5C 1894.81,31.8523 1892.14,35.1856 1889.5,38.5C 1887.06,40.0268 1885.06,42.0268 1883.5,44.5C 1877.82,44.6661 1872.16,44.4994 1866.5,44C 1871.67,39.5 1876.83,35 1882,30.5C 1882.85,28.8068 1883.68,27.1401 1884.5,25.5 Z M 1883.5,35.5 C 1883.2,34.8501 1882.86,34.1835 1882.5,33.5C 1884.33,31.5017 1885.33,29.1684 1885.5,26.5C 1888.9,26.1796 1892.23,26.513 1895.5,27.5C 1893.48,29.6898 1891.64,32.0232 1890,34.5C 1889.67,34.1667 1889.33,33.8333 1889,33.5C 1887.4,35.5814 1885.57,36.2481 1883.5,35.5 Z M 1880.5,39.5 C 1878.99,38.6907 1877.32,38.5241 1875.5,39C 1877.35,37.3314 1879.35,37.1647 1881.5,38.5C 1881.38,39.1067 1881.04,39.44 1880.5,39.5 Z"/></g>
<g><path style="opacity:1" fill="#1b181a" d="M 1362.5,23.5 C 1367.34,23.5288 1372.34,23.1955 1377.5,22.5C 1379.2,22.8988 1380.86,23.3988 1382.5,24C 1384.65,30.7958 1388.81,35.9625 1395,39.5C 1396.04,41.7463 1397.21,43.913 1398.5,46C 1397.55,46.4828 1396.55,46.6495 1395.5,46.5C 1388.87,46.3384 1382.37,46.3384 1376,46.5C 1374.37,45.1821 1374.2,43.8488 1375.5,42.5C 1378.53,44.0798 1381.87,44.7465 1385.5,44.5C 1388.17,44.1667 1390.83,43.8333 1393.5,43.5C 1391.02,40.0116 1387.86,37.3449 1384,35.5C 1381.71,32.4201 1379.54,29.2534 1377.5,26C 1372.53,24.9041 1367.53,24.0707 1362.5,23.5 Z"/></g>
<g><path style="opacity:0.973" fill="#2c2156" d="M 1333.5,28.5 C 1335.17,29.1667 1336.83,29.8333 1338.5,30.5C 1342.81,34.1372 1347.14,37.8039 1351.5,41.5C 1354.5,43.8333 1357.17,46.5 1359.5,49.5C 1360.71,53.363 1362.71,56.6964 1365.5,59.5C 1366.11,60.391 1366.44,61.391 1366.5,62.5C 1366.15,64.6348 1366.98,65.9681 1369,66.5C 1375.72,64.5738 1382.56,63.2405 1389.5,62.5C 1382.25,65.7257 1374.58,67.2257 1366.5,67C 1359,51.0097 1347.67,38.843 1332.5,30.5C 1332.83,29.8333 1333.17,29.1667 1333.5,28.5 Z"/></g>
<g><path style="opacity:1" fill="#5439b4" d="M 1353.5,27.5 C 1355.75,28.0798 1357.42,29.4131 1358.5,31.5C 1360.01,33.8604 1361.34,36.3604 1362.5,39C 1361.77,41.124 1361.11,43.2906 1360.5,45.5C 1360,46.521 1359.33,46.6877 1358.5,46C 1356.29,43.9575 1354.29,41.7908 1352.5,39.5C 1351.7,39.9569 1351.37,40.6236 1351.5,41.5C 1347.14,37.8039 1342.81,34.1372 1338.5,30.5C 1336.11,28.3334 1333.78,26 1331.5,23.5C 1332,22.1195 1333,21.4528 1334.5,21.5C 1340.58,24.2703 1346.91,26.2703 1353.5,27.5 Z"/></g>
<g><path style="opacity:1" fill="#1f1625" d="M 1355.5,19.5 C 1363.84,19.3336 1372.17,19.5003 1380.5,20C 1387.64,29.6438 1395.98,38.1438 1405.5,45.5C 1404.31,46.7773 1402.64,47.4439 1400.5,47.5C 1398.63,47.4932 1396.96,47.1599 1395.5,46.5C 1396.55,46.6495 1397.55,46.4828 1398.5,46C 1397.21,43.913 1396.04,41.7463 1395,39.5C 1388.81,35.9625 1384.65,30.7958 1382.5,24C 1380.86,23.3988 1379.2,22.8988 1377.5,22.5C 1372.34,23.1955 1367.34,23.5288 1362.5,23.5C 1362.63,25.2161 1362.96,26.8828 1363.5,28.5C 1363.63,29.2389 1363.46,29.9056 1363,30.5C 1361.17,27.8343 1358.67,26.1676 1355.5,25.5C 1355.5,23.5 1355.5,21.5 1355.5,19.5 Z"/></g>
<g><path style="opacity:1" fill="#1f1829" d="M 1878.5,23.5 C 1877.33,27.1742 1875.5,30.5075 1873,33.5C 1871.83,34.8932 1870.33,35.7265 1868.5,36C 1865.83,38.8089 1863.49,41.8089 1861.5,45C 1862.42,45.3742 1863.25,45.8742 1864,46.5C 1867.29,46.0879 1870.79,46.0879 1874.5,46.5C 1877.91,46.483 1880.91,45.8164 1883.5,44.5C 1885.06,42.0268 1887.06,40.0268 1889.5,38.5C 1889.26,39.791 1889.6,40.791 1890.5,41.5C 1889.4,42.6049 1888.73,43.9382 1888.5,45.5C 1887.5,46.1667 1886.5,46.8333 1885.5,47.5C 1874.49,47.6665 1863.49,47.4998 1852.5,47C 1862.28,40.3818 1870.95,32.5485 1878.5,23.5 Z"/></g>
<g><path style="opacity:1" fill="#533bb7" d="M 1918.5,33.5 C 1916.6,33.7376 1915.26,34.7376 1914.5,36.5C 1912.53,37.451 1910.53,38.451 1908.5,39.5C 1905.28,42.5558 1902.61,46.0558 1900.5,50C 1899.55,50.4828 1898.55,50.6495 1897.5,50.5C 1897.25,43.5772 1899.25,37.5772 1903.5,32.5C 1907.98,30.3398 1912.48,28.0064 1917,25.5C 1918.5,25.6667 1919.33,26.5 1919.5,28C 1918.77,29.7659 1918.43,31.5992 1918.5,33.5 Z"/></g>
<g><path style="opacity:0.987" fill="#191619" d="M 1879.5,21.5 C 1886.51,21.3337 1893.51,21.5004 1900.5,22C 1899.75,22.6708 1899.41,23.5041 1899.5,24.5C 1894.31,24.1795 1889.31,24.5128 1884.5,25.5C 1883.68,27.1401 1882.85,28.8068 1882,30.5C 1876.83,35 1871.67,39.5 1866.5,44C 1872.16,44.4994 1877.82,44.6661 1883.5,44.5C 1880.91,45.8164 1877.91,46.483 1874.5,46.5C 1870.79,46.0879 1867.29,46.0879 1864,46.5C 1863.25,45.8742 1862.42,45.3742 1861.5,45C 1863.49,41.8089 1865.83,38.8089 1868.5,36C 1870.33,35.7265 1871.83,34.8932 1873,33.5C 1875.5,30.5075 1877.33,27.1742 1878.5,23.5C 1878.33,22.5084 1878.66,21.8417 1879.5,21.5 Z"/></g>
<g><path style="opacity:0.043" fill="#edeced" d="M 1362.5,23.5 C 1367.53,24.0707 1372.53,24.9041 1377.5,26C 1379.54,29.2534 1381.71,32.4201 1384,35.5C 1387.86,37.3449 1391.02,40.0116 1393.5,43.5C 1390.83,43.8333 1388.17,44.1667 1385.5,44.5C 1381.87,44.7465 1378.53,44.0798 1375.5,42.5C 1371.95,39.0941 1369.12,35.0941 1367,30.5C 1366.18,29.1772 1365.02,28.5106 1363.5,28.5C 1362.96,26.8828 1362.63,25.2161 1362.5,23.5 Z M 1383.5,37.5 C 1384.93,37.8807 1385.76,38.8807 1386,40.5C 1386.33,40.1667 1386.67,39.8333 1387,39.5C 1387.67,40.5 1387.67,41.5 1387,42.5C 1384.36,42.4549 1381.53,42.2882 1378.5,42C 1373.7,37.4141 1369.37,32.4141 1365.5,27C 1369.26,26.2617 1372.93,26.5951 1376.5,28C 1378.41,32.2844 1380.74,35.451 1383.5,37.5 Z"/></g>
<g><path style="opacity:0.005" fill="#fefffe" d="M 1383.5,37.5 C 1384.3,38.4232 1384.47,39.4232 1384,40.5C 1383,39.1667 1382,39.1667 1381,40.5C 1380.52,39.552 1380.35,38.552 1380.5,37.5C 1381.5,37.5 1382.5,37.5 1383.5,37.5 Z"/></g>
<g><path style="opacity:1" fill="#504463" d="M 1346.5,18.5 C 1346.5,18.1667 1346.5,17.8333 1346.5,17.5C 1358.5,17.3335 1370.5,17.5001 1382.5,18C 1383.06,18.3826 1383.39,18.8826 1383.5,19.5C 1383.83,20.5 1384.5,21.1667 1385.5,21.5C 1385.5,21.8333 1385.5,22.1667 1385.5,22.5C 1392.25,31.9232 1400.59,39.5899 1410.5,45.5C 1409.17,45.5 1407.83,45.5 1406.5,45.5C 1406.17,45.5 1405.83,45.5 1405.5,45.5C 1395.98,38.1438 1387.64,29.6438 1380.5,20C 1372.17,19.5003 1363.84,19.3336 1355.5,19.5C 1352.52,19.0371 1349.52,18.7038 1346.5,18.5 Z"/></g>
<g><path style="opacity:1" fill="#312d4a" d="M 1355.5,25.5 C 1358.67,26.1676 1361.17,27.8343 1363,30.5C 1363.46,29.9056 1363.63,29.2389 1363.5,28.5C 1365.02,28.5106 1366.18,29.1772 1367,30.5C 1369.12,35.0941 1371.95,39.0941 1375.5,42.5C 1374.2,43.8488 1374.37,45.1821 1376,46.5C 1382.37,46.3384 1388.87,46.3384 1395.5,46.5C 1396.96,47.1599 1398.63,47.4932 1400.5,47.5C 1402.64,47.4439 1404.31,46.7773 1405.5,45.5C 1405.83,45.5 1406.17,45.5 1406.5,45.5C 1406.92,46.2216 1407.58,46.7216 1408.5,47C 1408.17,47.3333 1407.83,47.6667 1407.5,48C 1396.5,48.128 1385.5,47.9614 1374.5,47.5C 1373.5,46.1667 1372.5,44.8333 1371.5,43.5C 1369.46,42.3738 1368.13,40.7071 1367.5,38.5C 1366.17,36.8333 1364.83,35.1667 1363.5,33.5C 1361.14,30.4728 1358.47,27.8062 1355.5,25.5 Z"/></g>
<g><path style="opacity:0.994" fill="#282132" d="M 1385.5,22.5 C 1388.02,22.8477 1389.85,24.1811 1391,26.5C 1391.49,25.2068 1391.66,23.8734 1391.5,22.5C 1396.69,22.1795 1401.69,22.5128 1406.5,23.5C 1405.17,23.5 1404.5,24.1667 1404.5,25.5C 1401.83,25.5 1399.17,25.5 1396.5,25.5C 1396.35,26.552 1396.52,27.552 1397,28.5C 1403.87,34.8978 1411.37,40.2311 1419.5,44.5C 1468.66,45.4989 1518,45.8322 1567.5,45.5C 1518,46.6146 1468.34,47.2812 1418.5,47.5C 1415.45,47.8893 1412.78,47.2227 1410.5,45.5C 1400.59,39.5899 1392.25,31.9232 1385.5,22.5 Z"/></g>
<g><path style="opacity:0.992" fill="#201a25" d="M 1871.5,22.5 C 1871.5,22.8333 1871.5,23.1667 1871.5,23.5C 1872.08,26.5497 1870.91,28.5497 1868,29.5C 1867.29,32.8794 1865.12,34.3794 1861.5,34C 1857.16,37.7124 1852.83,41.379 1848.5,45C 1846.98,46.0086 1845.31,46.5086 1843.5,46.5C 1751.43,46.8307 1659.43,46.4973 1567.5,45.5C 1518,45.8322 1468.66,45.4989 1419.5,44.5C 1560.17,44.6667 1700.83,44.5 1841.5,44C 1845.96,43.434 1849.96,41.7673 1853.5,39C 1858.17,34.6226 1862.84,30.2893 1867.5,26C 1862.45,25.2742 1857.45,25.4409 1852.5,26.5C 1851.79,25.596 1850.79,25.2627 1849.5,25.5C 1855.17,24.8333 1860.83,24.1667 1866.5,23.5C 1868.22,23.3713 1869.88,23.038 1871.5,22.5 Z"/></g>
<g><path style="opacity:1" fill="#241832" d="M 1567.5,45.5 C 1659.43,46.4973 1751.43,46.8307 1843.5,46.5C 1843.39,47.1174 1843.06,47.6174 1842.5,48C 1717.5,48.5 1592.5,48.6667 1467.5,48.5C 1450.99,48.8298 1434.66,48.4964 1418.5,47.5C 1468.34,47.2812 1518,46.6146 1567.5,45.5 Z"/></g>
<g><path style="opacity:1" fill="#7d86cc" d="M 1904.5,27.5 C 1901.84,32.1291 1898.67,36.4624 1895,40.5C 1894.33,46.1667 1894.33,51.8333 1895,57.5C 1896.74,56.2842 1897.74,54.6175 1898,52.5C 1898.67,51.7476 1899.5,51.4142 1900.5,51.5C 1900.27,53.0618 1899.6,54.3951 1898.5,55.5C 1897.07,58.0472 1895.4,60.3805 1893.5,62.5C 1892.77,54.897 1892.77,47.2303 1893.5,39.5C 1895.8,34.2381 1899.46,30.2381 1904.5,27.5 Z"/></g>
<g><path style="opacity:1" fill="#7165d7" d="M 1358.5,31.5 C 1359.5,32.1667 1360.5,32.8333 1361.5,33.5C 1364.01,36.2546 1365.01,39.588 1364.5,43.5C 1364.17,45.8333 1363.83,48.1667 1363.5,50.5C 1362.81,49.9747 1362.31,49.3081 1362,48.5C 1361.33,49.2524 1360.5,49.5858 1359.5,49.5C 1357.17,46.5 1354.5,43.8333 1351.5,41.5C 1351.37,40.6236 1351.7,39.9569 1352.5,39.5C 1354.29,41.7908 1356.29,43.9575 1358.5,46C 1359.33,46.6877 1360,46.521 1360.5,45.5C 1361.11,43.2906 1361.77,41.124 1362.5,39C 1361.34,36.3604 1360.01,33.8604 1358.5,31.5 Z"/></g>
<g><path style="opacity:1" fill="#594a78" d="M 1406.5,45.5 C 1407.83,45.5 1409.17,45.5 1410.5,45.5C 1412.78,47.2227 1415.45,47.8893 1418.5,47.5C 1434.66,48.4964 1450.99,48.8298 1467.5,48.5C 1467.17,49.1667 1466.83,49.8333 1466.5,50.5C 1440.5,50.5 1414.5,50.5 1388.5,50.5C 1384.63,48.5698 1380.29,47.9031 1375.5,48.5C 1374.83,48.5 1374.5,48.1667 1374.5,47.5C 1385.5,47.9614 1396.5,48.128 1407.5,48C 1407.83,47.6667 1408.17,47.3333 1408.5,47C 1407.58,46.7216 1406.92,46.2216 1406.5,45.5 Z"/></g>
<g><path style="opacity:1" fill="#7b74b9" d="M 1375.5,48.5 C 1380.29,47.9031 1384.63,48.5698 1388.5,50.5C 1386.83,50.5 1385.17,50.5 1383.5,50.5C 1381.08,50.1924 1378.74,50.5258 1376.5,51.5C 1375.34,53.7106 1374.01,55.7106 1372.5,57.5C 1373.3,54.4214 1374.3,51.4214 1375.5,48.5 Z"/></g>
<g><path style="opacity:1" fill="#665994" d="M 1884.5,48.5 C 1885.55,49.2223 1886.22,50.2223 1886.5,51.5C 1885.61,50.8902 1884.61,50.5569 1883.5,50.5C 1879.5,50.5 1875.5,50.5 1871.5,50.5C 1861.5,50.5 1851.5,50.5 1841.5,50.5C 1855.66,49.548 1870,48.8814 1884.5,48.5 Z"/></g>
<g><path style="opacity:0.066" fill="#d9d5e0" d="M 1225.5,26.5 C 1258.17,26.5 1290.83,26.5 1323.5,26.5C 1326.5,27.8333 1329.5,29.1667 1332.5,30.5C 1347.67,38.843 1359,51.0097 1366.5,67C 1374.58,67.2257 1382.25,65.7257 1389.5,62.5C 1389.83,62.5 1390.17,62.5 1390.5,62.5C 1548.83,62.5 1707.17,62.5 1865.5,62.5C 1866.49,62.3284 1867.16,62.6618 1867.5,63.5C 1708.33,63.167 1549.33,63.5004 1390.5,64.5C 1383.77,66.5601 1376.94,68.5601 1370,70.5C 1368.6,69.7734 1367.1,69.2734 1365.5,69C 1362.04,64.5777 1359.2,59.7443 1357,54.5C 1348.15,42.8271 1336.98,34.1605 1323.5,28.5C 1290.83,27.8333 1258.17,27.1667 1225.5,26.5 Z"/></g>
<g><path style="opacity:1" fill="#c3d4ec" d="M 1371.5,43.5 C 1372.5,44.8333 1373.5,46.1667 1374.5,47.5C 1374.5,48.1667 1374.83,48.5 1375.5,48.5C 1374.3,51.4214 1373.3,54.4214 1372.5,57.5C 1371.6,60.2127 1370.27,62.546 1368.5,64.5C 1369.14,59.288 1369.14,54.1213 1368.5,49C 1368.7,46.5521 1369.7,44.7188 1371.5,43.5 Z"/></g>
<g><path style="opacity:1" fill="#2b1c54" d="M 1383.5,50.5 C 1385.17,50.5 1386.83,50.5 1388.5,50.5C 1414.5,50.5 1440.5,50.5 1466.5,50.5C 1591.5,50.5 1716.5,50.5 1841.5,50.5C 1851.5,50.5 1861.5,50.5 1871.5,50.5C 1871.5,51.8333 1871.5,53.1667 1871.5,54.5C 1856.49,54.5623 1841.49,54.2289 1826.5,53.5C 1817.29,54.0271 1808.29,54.6938 1799.5,55.5C 1796.41,55.5217 1793.74,56.1883 1791.5,57.5C 1786.49,57.6659 1781.49,57.4993 1776.5,57C 1775.83,56.3333 1775.17,55.6667 1774.5,55C 1771.57,54.7822 1768.74,54.2822 1766,53.5C 1764.27,54.374 1762.44,54.2074 1760.5,53C 1692.91,52.5339 1625.41,52.3673 1558,52.5C 1546.82,53.0353 1535.65,54.0353 1524.5,55.5C 1512.23,53.546 1499.9,53.046 1487.5,54C 1486.97,54.6924 1486.31,55.1924 1485.5,55.5C 1462.52,55.8027 1439.35,55.136 1416,53.5C 1409.86,54.2841 1403.69,54.6174 1397.5,54.5C 1393.12,53.7062 1388.79,53.7062 1384.5,54.5C 1383.5,54 1382.5,53.5 1381.5,53C 1382.38,52.2917 1383.05,51.4584 1383.5,50.5 Z"/></g>
<g><path style="opacity:0.878" fill="#c4daea" d="M 1886.5,51.5 C 1886.22,50.2223 1885.55,49.2223 1884.5,48.5C 1885.17,48.5 1885.5,48.1667 1885.5,47.5C 1886.5,46.8333 1887.5,46.1667 1888.5,45.5C 1889.46,45.0472 1890.29,44.3805 1891,43.5C 1891.67,48.1667 1891.67,52.8333 1891,57.5C 1889.53,55.3688 1888.03,53.3688 1886.5,51.5 Z"/></g>
<g><path style="opacity:1" fill="#6760c5" d="M 1904.5,27.5 C 1905.17,27.5 1905.83,27.5 1906.5,27.5C 1905.75,29.3325 1904.75,30.9991 1903.5,32.5C 1899.25,37.5772 1897.25,43.5772 1897.5,50.5C 1898.55,50.6495 1899.55,50.4828 1900.5,50C 1902.61,46.0558 1905.28,42.5558 1908.5,39.5C 1910.53,38.451 1912.53,37.451 1914.5,36.5C 1909.82,41.517 1905.15,46.517 1900.5,51.5C 1899.5,51.4142 1898.67,51.7476 1898,52.5C 1897.74,54.6175 1896.74,56.2842 1895,57.5C 1894.33,51.8333 1894.33,46.1667 1895,40.5C 1898.67,36.4624 1901.84,32.1291 1904.5,27.5 Z"/></g>
<g><path style="opacity:1" fill="#8194d0" d="M 1367.5,38.5 C 1368.13,40.7071 1369.46,42.3738 1371.5,43.5C 1369.7,44.7188 1368.7,46.5521 1368.5,49C 1369.14,54.1213 1369.14,59.288 1368.5,64.5C 1367.83,63.8333 1367.17,63.1667 1366.5,62.5C 1366.44,61.391 1366.11,60.391 1365.5,59.5C 1366.58,52.4402 1367.25,45.4402 1367.5,38.5 Z"/></g>
<g><path style="opacity:1" fill="#381e68" d="M 1871.5,50.5 C 1875.5,50.5 1879.5,50.5 1883.5,50.5C 1882.43,51.4345 1881.1,51.7678 1879.5,51.5C 1879.5,53.1667 1879.5,54.8333 1879.5,56.5C 1878.83,56.8333 1878.17,57.1667 1877.5,57.5C 1871.58,55.9552 1865.41,55.2886 1859,55.5C 1836.5,56.3436 1814,57.0103 1791.5,57.5C 1793.74,56.1883 1796.41,55.5217 1799.5,55.5C 1808.29,54.6938 1817.29,54.0271 1826.5,53.5C 1841.49,54.2289 1856.49,54.5623 1871.5,54.5C 1871.5,53.1667 1871.5,51.8333 1871.5,50.5 Z"/></g>
<g><path style="opacity:1" fill="#291453" d="M 1791.5,57.5 C 1791.08,58.2216 1790.42,58.7216 1789.5,59C 1790.31,59.3076 1790.97,59.8076 1791.5,60.5C 1816.33,61.1667 1841,61.8333 1865.5,62.5C 1707.17,62.5 1548.83,62.5 1390.5,62.5C 1390.5,62.1667 1390.5,61.8333 1390.5,61.5C 1412.17,61.6666 1433.84,61.5 1455.5,61C 1460.96,60.8533 1466.29,60.02 1471.5,58.5C 1447.87,56.7807 1424.2,56.114 1400.5,56.5C 1399.5,55.8333 1398.5,55.1667 1397.5,54.5C 1403.69,54.6174 1409.86,54.2841 1416,53.5C 1439.35,55.136 1462.52,55.8027 1485.5,55.5C 1486.31,55.1924 1486.97,54.6924 1487.5,54C 1499.9,53.046 1512.23,53.546 1524.5,55.5C 1535.65,54.0353 1546.82,53.0353 1558,52.5C 1625.41,52.3673 1692.91,52.5339 1760.5,53C 1762.44,54.2074 1764.27,54.374 1766,53.5C 1768.74,54.2822 1771.57,54.7822 1774.5,55C 1775.17,55.6667 1775.83,56.3333 1776.5,57C 1781.49,57.4993 1786.49,57.6659 1791.5,57.5 Z"/></g>
<g><path style="opacity:1" fill="#7980d4" d="M 1361.5,33.5 C 1362.17,33.5 1362.83,33.5 1363.5,33.5C 1364.83,35.1667 1366.17,36.8333 1367.5,38.5C 1367.25,45.4402 1366.58,52.4402 1365.5,59.5C 1362.71,56.6964 1360.71,53.363 1359.5,49.5C 1360.5,49.5858 1361.33,49.2524 1362,48.5C 1362.31,49.3081 1362.81,49.9747 1363.5,50.5C 1363.83,48.1667 1364.17,45.8333 1364.5,43.5C 1365.01,39.588 1364.01,36.2546 1361.5,33.5 Z"/></g>
<g><path style="opacity:1" fill="#3b1870" d="M 1877.5,57.5 C 1873.51,57.1684 1869.51,56.835 1865.5,56.5C 1848.8,56.9834 1832.13,57.8167 1815.5,59C 1833.46,60.2648 1851.46,60.9314 1869.5,61C 1872.38,61.546 1875.05,62.3794 1877.5,63.5C 1875.5,63.5 1873.5,63.5 1871.5,63.5C 1870.17,63.5 1868.83,63.5 1867.5,63.5C 1867.16,62.6618 1866.49,62.3284 1865.5,62.5C 1841,61.8333 1816.33,61.1667 1791.5,60.5C 1790.97,59.8076 1790.31,59.3076 1789.5,59C 1790.42,58.7216 1791.08,58.2216 1791.5,57.5C 1814,57.0103 1836.5,56.3436 1859,55.5C 1865.41,55.2886 1871.58,55.9552 1877.5,57.5 Z"/></g>
<g><path style="opacity:1" fill="#463291" d="M 1383.5,50.5 C 1383.05,51.4584 1382.38,52.2917 1381.5,53C 1382.5,53.5 1383.5,54 1384.5,54.5C 1388.79,53.7062 1393.12,53.7062 1397.5,54.5C 1398.5,55.1667 1399.5,55.8333 1400.5,56.5C 1394.07,55.9775 1387.9,56.9775 1382,59.5C 1377.26,56.9002 1376.76,57.4002 1380.5,61C 1383.82,61.4983 1387.15,61.665 1390.5,61.5C 1390.5,61.8333 1390.5,62.1667 1390.5,62.5C 1390.17,62.5 1389.83,62.5 1389.5,62.5C 1382.56,63.2405 1375.72,64.5738 1369,66.5C 1366.98,65.9681 1366.15,64.6348 1366.5,62.5C 1367.17,63.1667 1367.83,63.8333 1368.5,64.5C 1370.27,62.546 1371.6,60.2127 1372.5,57.5C 1374.01,55.7106 1375.34,53.7106 1376.5,51.5C 1378.74,50.5258 1381.08,50.1924 1383.5,50.5 Z"/></g>
<g><path style="opacity:1" fill="#3e1776" d="M 1400.5,56.5 C 1424.2,56.114 1447.87,56.7807 1471.5,58.5C 1466.29,60.02 1460.96,60.8533 1455.5,61C 1433.84,61.5 1412.17,61.6666 1390.5,61.5C 1387.15,61.665 1383.82,61.4983 1380.5,61C 1376.76,57.4002 1377.26,56.9002 1382,59.5C 1387.9,56.9775 1394.07,55.9775 1400.5,56.5 Z"/></g>
<g><path style="opacity:1" fill="#2d0f5d" d="M 1544.5,54.5 C 1554.99,54.9297 1565.32,55.9297 1575.5,57.5C 1582.51,57.0765 1589.51,56.5765 1596.5,56C 1597,55.5 1597.5,55 1598,54.5C 1604.41,55.0291 1610.74,56.0291 1617,57.5C 1621.33,57.1667 1625.67,56.8333 1630,56.5C 1667.76,57.33 1705.6,57.83 1743.5,58C 1742.74,58.9435 1741.74,59.4435 1740.5,59.5C 1655.82,59.6305 1570.82,59.4638 1485.5,59C 1484.83,58.6667 1484.17,58.3333 1483.5,58C 1498.17,57.6667 1512.83,57.3333 1527.5,57C 1533.3,56.1088 1538.97,55.2754 1544.5,54.5 Z"/></g>
<g><path style="opacity:1" fill="#431d84" d="M 1877.5,57.5 C 1878.17,57.1667 1878.83,56.8333 1879.5,56.5C 1880.5,56.5 1881.5,56.5 1882.5,56.5C 1882.5,57.5 1882.5,58.5 1882.5,59.5C 1886.24,58.5985 1888.24,59.9319 1888.5,63.5C 1886.5,63.5 1884.5,63.5 1882.5,63.5C 1880.83,63.5 1879.17,63.5 1877.5,63.5C 1875.05,62.3794 1872.38,61.546 1869.5,61C 1851.46,60.9314 1833.46,60.2648 1815.5,59C 1832.13,57.8167 1848.8,56.9834 1865.5,56.5C 1869.51,56.835 1873.51,57.1684 1877.5,57.5 Z"/></g>
<g><path style="opacity:1" fill="#473d98" d="M 1883.5,50.5 C 1884.61,50.5569 1885.61,50.8902 1886.5,51.5C 1887.13,54.3973 1888.13,57.064 1889.5,59.5C 1889.5,61.1667 1889.5,62.8333 1889.5,64.5C 1886.94,64.8016 1884.61,64.4682 1882.5,63.5C 1884.5,63.5 1886.5,63.5 1888.5,63.5C 1888.24,59.9319 1886.24,58.5985 1882.5,59.5C 1882.5,58.5 1882.5,57.5 1882.5,56.5C 1881.5,56.5 1880.5,56.5 1879.5,56.5C 1879.5,54.8333 1879.5,53.1667 1879.5,51.5C 1881.1,51.7678 1882.43,51.4345 1883.5,50.5 Z"/></g>
<g><path style="opacity:1" fill="#a8b4e1" d="M 1893.5,39.5 C 1892.77,47.2303 1892.77,54.897 1893.5,62.5C 1893.5,63.1667 1893.5,63.8333 1893.5,64.5C 1892.5,64.5858 1891.67,64.2524 1891,63.5C 1890.79,61.9419 1890.29,60.6085 1889.5,59.5C 1888.13,57.064 1887.13,54.3973 1886.5,51.5C 1888.03,53.3688 1889.53,55.3688 1891,57.5C 1891.67,52.8333 1891.67,48.1667 1891,43.5C 1890.29,44.3805 1889.46,45.0472 1888.5,45.5C 1888.73,43.9382 1889.4,42.6049 1890.5,41.5C 1891.5,40.8333 1892.5,40.1667 1893.5,39.5 Z"/></g>
<g><path style="opacity:0.957" fill="#483a72" d="M 1889.5,59.5 C 1890.29,60.6085 1890.79,61.9419 1891,63.5C 1891.67,64.2524 1892.5,64.5858 1893.5,64.5C 1893.22,65.2891 1892.72,65.9558 1892,66.5C 1889.28,65.5562 1886.45,65.2229 1883.5,65.5C 1879.27,65.4613 1875.27,64.7947 1871.5,63.5C 1873.5,63.5 1875.5,63.5 1877.5,63.5C 1879.17,63.5 1880.83,63.5 1882.5,63.5C 1884.61,64.4682 1886.94,64.8016 1889.5,64.5C 1889.5,62.8333 1889.5,61.1667 1889.5,59.5 Z"/></g>
<g><path style="opacity:0.922" fill="#2c2748" d="M 1898.5,55.5 C 1899.17,55.5 1899.5,55.8333 1899.5,56.5C 1897.29,60.251 1895.63,64.251 1894.5,68.5C 1890.35,68.8743 1886.69,67.8743 1883.5,65.5C 1886.45,65.2229 1889.28,65.5562 1892,66.5C 1892.72,65.9558 1893.22,65.2891 1893.5,64.5C 1893.5,63.8333 1893.5,63.1667 1893.5,62.5C 1895.4,60.3805 1897.07,58.0472 1898.5,55.5 Z"/></g>
<g><path style="opacity:0.059" fill="#ededed" d="M 1874.5,75.5 C 1875.5,74.1667 1876.5,74.1667 1877.5,75.5C 1876.5,75.5 1875.5,75.5 1874.5,75.5 Z"/></g>
</svg>
